<svg width="536" height="89" viewBox="0 0 536 89" fill="none" xmlns="http://www.w3.org/2000/svg">
<path d="M450.071 10.9167C440.271 3.90337 429.371 0.610036 417.371 1.0367C401.891 1.5967 388.381 9.18672 387.331 25.8067C385.931 47.9767 406.831 49.7967 422.541 54.0767C427.521 55.4267 434.991 57.7367 433.661 64.1667C432.401 70.2567 425.041 70.7167 419.811 70.3067C411.021 69.6167 401.761 66.5367 395.241 60.3367C395.188 60.2858 395.125 60.2465 395.056 60.2212C394.987 60.196 394.913 60.1854 394.84 60.1901C394.766 60.1948 394.695 60.2147 394.629 60.2486C394.564 60.2824 394.507 60.3294 394.461 60.3867L383.651 73.9467C383.596 74.0141 383.556 74.0919 383.532 74.1754C383.508 74.2589 383.502 74.3464 383.513 74.4325C383.524 74.5185 383.553 74.6014 383.597 74.676C383.642 74.7507 383.701 74.8156 383.771 74.8667C398.141 85.6767 418.131 90.8167 435.631 85.3567C448.871 81.2267 455.301 69.2467 452.791 55.8767C449.671 39.1867 427.981 36.3667 414.681 32.9167C411.951 32.2067 407.531 30.3567 407.081 27.1767C406.307 21.7367 408.777 18.81 414.491 18.3967C424.144 17.6967 432.891 20.3034 440.731 26.2167C440.758 26.237 440.79 26.2514 440.824 26.2589C440.857 26.2664 440.892 26.2668 440.926 26.2603C440.96 26.2537 440.992 26.2403 441.02 26.2207C441.048 26.2012 441.072 26.1759 441.091 26.1467L450.211 11.5867C450.276 11.4795 450.298 11.3511 450.272 11.2269C450.246 11.1028 450.174 10.9921 450.071 10.9167Z" fill="#32AB27" stroke="#8CB29B" stroke-width="2"/>
<path d="M37.58 2.44825C14.7667 2.46825 2.72666 2.48496 1.45999 2.4983C1.39958 2.49829 1.33977 2.51039 1.28395 2.534C1.22814 2.55762 1.17742 2.59228 1.1347 2.63593C1.09199 2.67957 1.0581 2.73137 1.03499 2.7884C1.01188 2.84542 0.999991 2.90654 1 2.96827V19.7083C1 19.7621 1.0106 19.8154 1.0312 19.8652C1.05181 19.9149 1.08201 19.9601 1.12009 19.9982C1.15816 20.0362 1.20335 20.0664 1.2531 20.087C1.30284 20.1076 1.35616 20.1183 1.41 20.1183H27.34C27.4567 20.1183 27.5686 20.1646 27.6511 20.2471C27.7336 20.3297 27.78 20.4416 27.78 20.5583V85.4482C27.78 85.6445 27.858 85.8328 27.9967 85.9716C28.1355 86.1103 28.3237 86.1883 28.52 86.1883C30.3933 86.195 33.44 86.195 37.66 86.1883C41.88 86.1883 44.93 86.1816 46.81 86.1683C47.0045 86.1657 47.1902 86.0865 47.3268 85.948C47.4634 85.8095 47.54 85.6228 47.54 85.4283L47.42 20.5383C47.42 20.4216 47.4663 20.3096 47.5489 20.2271C47.6314 20.1446 47.7433 20.0983 47.86 20.0983L73.79 20.0483C73.8987 20.0483 74.003 20.0051 74.0799 19.9282C74.1568 19.8513 74.2 19.747 74.2 19.6382L74.17 2.89826C74.17 2.83653 74.1581 2.77541 74.135 2.71839C74.1119 2.66136 74.078 2.60957 74.0353 2.56592C73.9926 2.52228 73.9419 2.48767 73.886 2.46405C73.8302 2.44044 73.7704 2.42828 73.71 2.42829C72.4433 2.42162 60.4 2.42825 37.58 2.44825Z" fill="#32AB27" stroke="#8CB29B" stroke-width="2"/>
<path d="M108.901 2.97748C108.901 2.83426 108.844 2.69691 108.742 2.59564C108.641 2.49437 108.504 2.4375 108.361 2.4375H89.6006C89.4573 2.4375 89.32 2.49437 89.2187 2.59564C89.1174 2.69691 89.0605 2.83426 89.0605 2.97748V85.6775C89.0605 85.8207 89.1174 85.9581 89.2187 86.0593C89.32 86.1606 89.4573 86.2175 89.6006 86.2175H108.361C108.504 86.2175 108.641 86.1606 108.742 86.0593C108.844 85.9581 108.901 85.8207 108.901 85.6775V2.97748Z" fill="#32AB27" stroke="#8CB29B" stroke-width="2"/>
<path d="M217.78 2.47656C217.661 2.47656 217.546 2.52395 217.462 2.60834C217.377 2.69273 217.33 2.80723 217.33 2.92657V85.7266C217.33 85.8459 217.377 85.9603 217.462 86.0447C217.546 86.1291 217.661 86.1766 217.78 86.1766H279.06C279.119 86.1766 279.178 86.1649 279.232 86.1423C279.287 86.1197 279.336 86.0865 279.378 86.0447C279.42 86.003 279.453 85.9533 279.476 85.8987C279.498 85.8441 279.51 85.7857 279.51 85.7266V69.0266C279.51 68.9675 279.498 68.909 279.476 68.8544C279.453 68.7998 279.42 68.7502 279.378 68.7084C279.336 68.6666 279.287 68.6335 279.232 68.6108C279.178 68.5882 279.119 68.5765 279.06 68.5765H237.6C237.481 68.5765 237.366 68.5292 237.282 68.4448C237.197 68.3604 237.15 68.2459 237.15 68.1266V2.92657C237.15 2.80723 237.103 2.69273 237.018 2.60834C236.934 2.52395 236.819 2.47656 236.7 2.47656H217.78Z" fill="#32AB27" stroke="#8CB29B" stroke-width="2"/>
<path d="M498.159 2.45784C475.359 2.51117 463.329 2.54454 462.069 2.55787C462.009 2.55786 461.949 2.57002 461.893 2.59364C461.837 2.61726 461.787 2.65186 461.744 2.69551C461.701 2.73915 461.668 2.79095 461.644 2.84797C461.621 2.905 461.609 2.96612 461.609 3.02784L461.629 19.7578C461.629 19.8666 461.673 19.9709 461.749 20.0477C461.826 20.1246 461.931 20.1679 462.039 20.1679L487.949 20.1279C488.066 20.1279 488.178 20.1742 488.26 20.2567C488.343 20.3392 488.389 20.4512 488.389 20.5679L488.479 85.4079C488.478 85.5046 488.496 85.6005 488.533 85.6903C488.569 85.78 488.624 85.8616 488.693 85.9305C488.761 85.9993 488.843 86.054 488.934 86.0913C489.024 86.1286 489.121 86.1478 489.219 86.1478C491.093 86.1545 494.139 86.1512 498.359 86.1378C502.573 86.1312 505.619 86.1212 507.499 86.1079C507.597 86.1066 507.693 86.0864 507.782 86.0485C507.871 86.0106 507.952 85.9557 508.02 85.887C508.088 85.8183 508.141 85.737 508.177 85.648C508.213 85.5589 508.231 85.4637 508.229 85.3679L508.019 20.5278C508.019 20.4111 508.066 20.2993 508.148 20.2167C508.231 20.1342 508.343 20.0878 508.459 20.0878L534.369 19.9979C534.478 19.9979 534.582 19.9546 534.659 19.8778C534.736 19.8009 534.779 19.6966 534.779 19.5878L534.719 2.85786C534.719 2.73321 534.671 2.61367 534.585 2.52552C534.498 2.43738 534.381 2.38783 534.259 2.38783C532.999 2.38116 520.966 2.4045 498.159 2.45784Z" fill="#32AB27" stroke="#8CB29B" stroke-width="2"/>
<path d="M450.071 10.9167C450.174 10.9921 450.246 11.1028 450.272 11.2269C450.298 11.3511 450.276 11.4795 450.211 11.5867L441.091 26.1467C441.072 26.1759 441.048 26.2012 441.02 26.2207C440.992 26.2403 440.96 26.2537 440.926 26.2603C440.892 26.2668 440.857 26.2664 440.824 26.2589C440.79 26.2514 440.758 26.237 440.731 26.2167C432.891 20.3034 424.144 17.6967 414.491 18.3967C408.777 18.81 406.307 21.7367 407.081 27.1767C407.531 30.3567 411.951 32.2067 414.681 32.9167C427.981 36.3667 449.671 39.1867 452.791 55.8767C455.301 69.2467 448.871 81.2267 435.631 85.3567C418.131 90.8167 398.141 85.6767 383.771 74.8667C383.701 74.8156 383.642 74.7507 383.597 74.676C383.553 74.6014 383.524 74.5185 383.513 74.4325C383.502 74.3464 383.508 74.2589 383.532 74.1754C383.556 74.0919 383.596 74.0141 383.651 73.9467L394.461 60.3867C394.507 60.3294 394.564 60.2824 394.629 60.2486C394.695 60.2147 394.766 60.1948 394.84 60.1901C394.913 60.1854 394.987 60.196 395.056 60.2212C395.125 60.2465 395.188 60.2858 395.241 60.3367C401.761 66.5367 411.021 69.6167 419.811 70.3067C425.041 70.7167 432.401 70.2567 433.661 64.1667C434.991 57.7367 427.521 55.4267 422.541 54.0767C406.831 49.7967 385.931 47.9767 387.331 25.8067C388.381 9.18672 401.891 1.5967 417.371 1.0367C429.371 0.610036 440.271 3.90337 450.071 10.9167Z" fill="#32AB27"/>
<path d="M342.792 2.5L342.797 2.50195C342.798 2.50302 342.8 2.50423 342.801 2.50586L342.803 2.51074L379.39 86.0059H379.391C379.391 86.0074 379.392 86.0092 379.392 86.0107C379.391 86.0124 379.391 86.0142 379.39 86.0156C379.389 86.0167 379.388 86.0178 379.387 86.0186C379.385 86.0194 379.383 86.0205 379.382 86.0205H359.72C359.718 86.0205 359.716 86.0195 359.715 86.0186C359.713 86.0175 359.712 86.0155 359.711 86.0137L359.709 86.0088L351.919 68.249H351.918C351.841 68.0719 351.716 67.9203 351.556 67.8125C351.394 67.7038 351.205 67.6432 351.01 67.6396H316.062C315.867 67.6432 315.677 67.7037 315.516 67.8125C315.394 67.8942 315.293 68.0011 315.218 68.125L315.153 68.249L307.373 85.9893L307.371 85.9941C307.37 85.996 307.369 85.997 307.367 85.998C307.366 85.999 307.364 85.9999 307.362 86H288.51C288.508 86 288.506 85.9997 288.505 85.999C288.504 85.9983 288.503 85.9965 288.502 85.9951C288.501 85.9938 288.5 85.9927 288.5 85.9912C288.5 85.9896 288.499 85.9869 288.5 85.9854L325.029 2.51074L325.031 2.50586C325.032 2.50427 325.033 2.5029 325.034 2.50195L325.04 2.5H342.792ZM333.453 25.0547C333.337 25.0569 333.222 25.085 333.118 25.1357L333.018 25.1934C332.921 25.2593 332.841 25.3458 332.781 25.4453L332.729 25.5488L322.249 50.7783C322.198 50.8989 322.177 51.0301 322.188 51.1602C322.2 51.2936 322.246 51.4226 322.32 51.5342C322.395 51.6454 322.496 51.7366 322.614 51.7988C322.731 51.8602 322.862 51.8899 322.993 51.8887L322.994 51.8896L344.204 51.7695L344.203 51.7686C344.332 51.7683 344.46 51.738 344.574 51.6777C344.69 51.6169 344.789 51.5286 344.862 51.4209C344.936 51.3133 344.982 51.1895 344.997 51.0596C345.012 50.9297 344.994 50.7981 344.946 50.6768L344.94 50.6631L334.2 25.5332H334.201L334.195 25.5225L334.14 25.4199C334.098 25.3554 334.047 25.2972 333.988 25.2471L333.895 25.1777L333.792 25.123C333.686 25.0761 333.57 25.0526 333.453 25.0547Z" fill="#32AB27" stroke="#8CB29B"/>
<path d="M37.66 86.1844C33.44 86.1911 30.3933 86.1911 28.52 86.1844C28.3237 86.1844 28.1355 86.1064 27.9967 85.9677C27.858 85.8289 27.78 85.6406 27.78 85.4443V20.5544C27.78 20.4377 27.7336 20.3257 27.6511 20.2432C27.5686 20.1607 27.4567 20.1144 27.34 20.1144H1.41C1.35616 20.1144 1.30284 20.1037 1.2531 20.0831C1.20335 20.0625 1.15816 20.0323 1.12009 19.9943C1.08201 19.9562 1.05181 19.911 1.0312 19.8613C1.0106 19.8115 1 19.7582 1 19.7043V2.96436C0.999991 2.90263 1.01188 2.84152 1.03499 2.78449C1.0581 2.72746 1.09199 2.67567 1.1347 2.63202C1.17742 2.58838 1.22814 2.55371 1.28395 2.53009C1.33977 2.50648 1.39958 2.49438 1.45999 2.49439C2.72666 2.48106 14.7667 2.46434 37.58 2.44434C60.4 2.42434 72.4433 2.41771 73.71 2.42438C73.7704 2.42438 73.8302 2.43653 73.886 2.46015C73.9419 2.48377 73.9926 2.51837 74.0353 2.56202C74.078 2.60566 74.1119 2.65746 74.135 2.71448C74.1581 2.77151 74.17 2.83263 74.17 2.89435L74.2 19.6343C74.2 19.7431 74.1568 19.8474 74.0799 19.9243C74.003 20.0011 73.8987 20.0444 73.79 20.0444L47.86 20.0944C47.7433 20.0944 47.6314 20.1407 47.5489 20.2232C47.4663 20.3057 47.42 20.4177 47.42 20.5344L47.54 85.4244C47.54 85.6189 47.4634 85.8056 47.3268 85.9441C47.1902 86.0826 47.0045 86.1617 46.81 86.1644C44.93 86.1777 41.88 86.1844 37.66 86.1844Z" fill="#32AB27"/>
<path d="M108.361 2.4375H89.6006C89.3023 2.4375 89.0605 2.67924 89.0605 2.97748V85.6775C89.0605 85.9757 89.3023 86.2175 89.6006 86.2175H108.361C108.659 86.2175 108.901 85.9757 108.901 85.6775V2.97748C108.901 2.67924 108.659 2.4375 108.361 2.4375Z" fill="#32AB27"/>
<mask id="path-10-inside-1_225_41" fill="white">
<path d="M130.51 2.06738C145.983 1.96479 158.62 1.97845 168.42 2.1084C187.69 2.36488 201.43 14.4406 199.41 35.2363C197.56 54.3186 183.33 61.9718 166.43 62.5977C163.023 62.7208 157.7 62.7178 150.46 62.5879C150.391 62.5865 150.322 62.5993 150.258 62.626C150.194 62.6527 150.135 62.6926 150.086 62.7432C150.037 62.7938 149.997 62.8543 149.971 62.9209C149.944 62.9875 149.93 63.0596 149.93 63.1318V87.292C149.93 87.4797 149.857 87.6602 149.728 87.793C149.598 87.9255 149.423 87.9999 149.24 88H130.73C130.635 88 130.539 87.981 130.45 87.9434C130.362 87.9057 130.282 87.8498 130.214 87.7803C130.146 87.7109 130.092 87.6287 130.056 87.5381C130.019 87.4472 130 87.3493 130 87.251V2.59082C130 2.45208 130.054 2.31881 130.149 2.2207C130.245 2.12273 130.375 2.06744 130.51 2.06738ZM150.71 19.5703C150.484 19.573 150.268 19.6669 150.108 19.832C149.949 19.9971 149.86 20.22 149.86 20.4521L150.02 44.2539C150.02 44.3704 150.042 44.4862 150.086 44.5938C150.13 44.7015 150.194 44.7998 150.275 44.8818C150.356 44.9638 150.452 45.0285 150.558 45.0723C150.663 45.116 150.776 45.138 150.89 45.1367L167.08 45.0137C170.386 44.9896 173.548 43.7559 175.871 41.584C178.194 39.4121 179.488 36.4793 179.47 33.4307L179.45 30.8652C179.441 29.3543 179.108 27.8604 178.473 26.4688C177.837 25.077 176.91 23.8143 175.744 22.7539C174.579 21.6937 173.198 20.8555 171.681 20.2881C170.163 19.7207 168.539 19.4353 166.9 19.4473L150.71 19.5703Z"/>
</mask>
<path d="M130.51 2.06738C145.983 1.96479 158.62 1.97845 168.42 2.1084C187.69 2.36488 201.43 14.4406 199.41 35.2363C197.56 54.3186 183.33 61.9718 166.43 62.5977C163.023 62.7208 157.7 62.7178 150.46 62.5879C150.391 62.5865 150.322 62.5993 150.258 62.626C150.194 62.6527 150.135 62.6926 150.086 62.7432C150.037 62.7938 149.997 62.8543 149.971 62.9209C149.944 62.9875 149.93 63.0596 149.93 63.1318V87.292C149.93 87.4797 149.857 87.6602 149.728 87.793C149.598 87.9255 149.423 87.9999 149.24 88H130.73C130.635 88 130.539 87.981 130.45 87.9434C130.362 87.9057 130.282 87.8498 130.214 87.7803C130.146 87.7109 130.092 87.6287 130.056 87.5381C130.019 87.4472 130 87.3493 130 87.251V2.59082C130 2.45208 130.054 2.31881 130.149 2.2207C130.245 2.12273 130.375 2.06744 130.51 2.06738ZM150.71 19.5703C150.484 19.573 150.268 19.6669 150.108 19.832C149.949 19.9971 149.86 20.22 149.86 20.4521L150.02 44.2539C150.02 44.3704 150.042 44.4862 150.086 44.5938C150.13 44.7015 150.194 44.7998 150.275 44.8818C150.356 44.9638 150.452 45.0285 150.558 45.0723C150.663 45.116 150.776 45.138 150.89 45.1367L167.08 45.0137C170.386 44.9896 173.548 43.7559 175.871 41.584C178.194 39.4121 179.488 36.4793 179.47 33.4307L179.45 30.8652C179.441 29.3543 179.108 27.8604 178.473 26.4688C177.837 25.077 176.91 23.8143 175.744 22.7539C174.579 21.6937 173.198 20.8555 171.681 20.2881C170.163 19.7207 168.539 19.4353 166.9 19.4473L150.71 19.5703Z" fill="#32AB27"/>
<path d="M130.51 2.06738L130.51 3.0674L130.516 3.06736L130.51 2.06738ZM168.42 2.1084L168.433 1.10849L168.433 1.10849L168.42 2.1084ZM199.41 35.2363L198.415 35.1396L198.415 35.1398L199.41 35.2363ZM166.43 62.5977L166.466 63.597L166.467 63.597L166.43 62.5977ZM150.46 62.5879L150.44 63.5877L150.442 63.5877L150.46 62.5879ZM150.258 62.626L149.874 61.7026L149.874 61.7027L150.258 62.626ZM150.086 62.7432L149.37 62.0451L149.37 62.0452L150.086 62.7432ZM149.971 62.9209L149.043 62.5481L149.043 62.5482L149.971 62.9209ZM149.93 63.1318L148.93 63.1317V63.1318H149.93ZM149.728 87.793L150.443 88.4914L150.444 88.491L149.728 87.793ZM149.24 88L149.24 89L149.241 89L149.24 88ZM130.45 87.9434L130.059 88.8636L130.059 88.8637L130.45 87.9434ZM130.214 87.7803L129.498 88.478L129.498 88.4783L130.214 87.7803ZM130.056 87.5381L129.128 87.9125L129.129 87.9129L130.056 87.5381ZM130 2.59082L129 2.59068V2.59082H130ZM130.149 2.2207L129.434 1.52241L129.433 1.52271L130.149 2.2207ZM150.71 19.5703L150.702 18.5703L150.698 18.5704L150.71 19.5703ZM150.108 19.832L149.388 19.1381L149.388 19.1382L150.108 19.832ZM149.86 20.4521L148.86 20.4519L148.86 20.4588L149.86 20.4521ZM150.02 44.2539L151.02 44.254L151.02 44.2472L150.02 44.2539ZM150.086 44.5938L149.159 44.9701L149.16 44.9707L150.086 44.5938ZM150.275 44.8818L149.563 45.584L149.563 45.584L150.275 44.8818ZM150.558 45.0723L150.175 45.996L150.175 45.996L150.558 45.0723ZM150.89 45.1367L150.882 44.1367L150.878 44.1368L150.89 45.1367ZM167.08 45.0137L167.073 44.0137L167.072 44.0137L167.08 45.0137ZM175.871 41.584L176.554 42.3145L176.554 42.3145L175.871 41.584ZM179.47 33.4307L180.47 33.4245L180.47 33.4231L179.47 33.4307ZM179.45 30.8652L178.45 30.8714L178.45 30.8728L179.45 30.8652ZM178.473 26.4688L179.382 26.0532L179.382 26.0532L178.473 26.4688ZM175.744 22.7539L176.417 22.0142L176.417 22.0142L175.744 22.7539ZM171.681 20.2881L172.031 19.3514L172.031 19.3514L171.681 20.2881ZM166.9 19.4473L166.893 18.4473L166.893 18.4473L166.9 19.4473ZM130.51 2.06738L130.516 3.06736C145.986 2.96479 158.616 2.97848 168.407 3.10831L168.42 2.1084L168.433 1.10849C158.624 0.978412 145.98 0.964789 130.503 1.0674L130.51 2.06738ZM168.42 2.1084L168.407 3.10831C177.843 3.2339 185.822 6.25037 191.188 11.6735C196.54 17.0818 199.401 24.9911 198.415 35.1396L199.41 35.2363L200.405 35.333C201.44 24.6858 198.441 16.1594 192.61 10.2668C186.793 4.38902 178.267 1.23938 168.433 1.10849L168.42 2.1084ZM199.41 35.2363L198.415 35.1398C197.515 44.4228 193.624 50.8401 187.968 55.035C182.281 59.2529 174.717 61.2901 166.393 61.5983L166.43 62.5977L166.467 63.597C175.042 63.2794 183.044 61.1771 189.159 56.6414C195.306 52.0826 199.455 45.1321 200.405 35.3328L199.41 35.2363ZM166.43 62.5977L166.394 61.5983C163.016 61.7204 157.715 61.7179 150.478 61.5881L150.46 62.5879L150.442 63.5877C157.685 63.7177 163.031 63.7211 166.466 63.597L166.43 62.5977ZM150.46 62.5879L150.48 61.5881C150.275 61.584 150.068 61.6218 149.874 61.7026L150.258 62.626L150.642 63.5493C150.576 63.5767 150.507 63.589 150.44 63.5877L150.46 62.5879ZM150.258 62.626L149.874 61.7027C149.682 61.7826 149.511 61.9002 149.37 62.0451L150.086 62.7432L150.802 63.4412C150.759 63.4849 150.706 63.5228 150.642 63.5492L150.258 62.626ZM150.086 62.7432L149.37 62.0452C149.227 62.1916 149.117 62.3633 149.043 62.5481L149.971 62.9209L150.899 63.2937C150.878 63.3453 150.846 63.396 150.802 63.4412L150.086 62.7432ZM149.971 62.9209L149.043 62.5482C148.969 62.731 148.93 62.9293 148.93 63.1317L149.93 63.1318L150.93 63.132C150.93 63.1898 150.919 63.2441 150.899 63.2936L149.971 62.9209ZM149.93 63.1318H148.93V87.292H149.93H150.93V63.1318H149.93ZM149.93 87.292H148.93C148.93 87.2231 148.956 87.1519 149.011 87.095L149.728 87.793L150.444 88.491C150.758 88.1685 150.93 87.7364 150.93 87.292H149.93ZM149.728 87.793L149.012 87.0945C149.068 87.0372 149.149 87 149.24 87L149.24 88L149.241 89C149.697 88.9998 150.129 88.8137 150.443 88.4914L149.728 87.793ZM149.24 88V87H130.73V88V89H149.24V88ZM130.73 88V87C130.766 87 130.803 87.0068 130.841 87.023L130.45 87.9434L130.059 88.8637C130.274 88.9552 130.504 89 130.73 89V88ZM130.45 87.9434L130.842 87.0232C130.882 87.0401 130.91 87.0621 130.93 87.0823L130.214 87.7803L129.498 88.4783C129.653 88.6374 129.842 88.7713 130.059 88.8636L130.45 87.9434ZM130.214 87.7803L130.93 87.0825C130.952 87.1051 130.97 87.1323 130.983 87.1632L130.056 87.5381L129.129 87.9129C129.214 88.1251 129.34 88.3167 129.498 88.478L130.214 87.7803ZM130.056 87.5381L130.983 87.1637C130.994 87.1923 131 87.2215 131 87.251H130H129C129 87.4771 129.043 87.7022 129.128 87.9125L130.056 87.5381ZM130 87.251H131V2.59082H130H129V87.251H130ZM130 2.59082L131 2.59096C131 2.709 130.955 2.82729 130.866 2.9187L130.149 2.2207L129.433 1.52271C129.153 1.81033 129 2.19515 129 2.59068L130 2.59082ZM130.149 2.2207L130.865 2.919C130.776 3.01033 130.649 3.06732 130.51 3.06738L130.51 2.06738L130.509 1.06738C130.1 1.06756 129.714 1.23513 129.434 1.52241L130.149 2.2207ZM150.71 19.5703L150.698 18.5704C150.201 18.5763 149.731 18.7828 149.388 19.1381L150.108 19.832L150.828 20.5259C150.804 20.551 150.766 20.5697 150.722 20.5702L150.71 19.5703ZM150.108 19.832L149.388 19.1382C149.046 19.493 148.86 19.9658 148.86 20.4519L149.86 20.4521L150.86 20.4524C150.86 20.4743 150.852 20.5013 150.829 20.5258L150.108 19.832ZM149.86 20.4521L148.86 20.4588L149.02 44.2606L150.02 44.2539L151.02 44.2472L150.86 20.4455L149.86 20.4521ZM150.02 44.2539L149.02 44.2538C149.02 44.4998 149.067 44.7433 149.159 44.9701L150.086 44.5938L151.012 44.2174C151.017 44.229 151.02 44.2411 151.02 44.254L150.02 44.2539ZM150.086 44.5938L149.16 44.9707C149.253 45.199 149.39 45.408 149.563 45.584L150.275 44.8818L150.987 44.1797C150.999 44.1916 151.007 44.204 151.012 44.2168L150.086 44.5938ZM150.275 44.8818L149.563 45.584C149.737 45.7603 149.945 45.9007 150.175 45.996L150.558 45.0723L150.941 44.1486C150.96 44.1564 150.975 44.1674 150.987 44.1796L150.275 44.8818ZM150.558 45.0723L150.175 45.996C150.403 46.0908 150.65 46.1395 150.901 46.1367L150.89 45.1367L150.878 44.1368C150.902 44.1365 150.923 44.1411 150.941 44.1485L150.558 45.0723ZM150.89 45.1367L150.897 46.1367L167.088 46.0136L167.08 45.0137L167.072 44.0137L150.882 44.1367L150.89 45.1367ZM167.08 45.0137L167.087 46.0136C170.633 45.9878 174.04 44.6652 176.554 42.3145L175.871 41.584L175.188 40.8535C173.056 42.8467 170.138 43.9914 167.073 44.0137L167.08 45.0137ZM175.871 41.584L176.554 42.3145C179.071 39.9612 180.49 36.7654 180.47 33.4245L179.47 33.4307L178.47 33.4368C178.487 36.1932 177.317 38.8629 175.188 40.8535L175.871 41.584ZM179.47 33.4307L180.47 33.4231L180.45 30.8576L179.45 30.8652L178.45 30.8728L178.47 33.4383L179.47 33.4307ZM179.45 30.8652L180.45 30.8591C180.44 29.2048 180.076 27.5715 179.382 26.0532L178.473 26.4688L177.563 26.8843C178.141 28.1493 178.442 29.5038 178.45 30.8714L179.45 30.8652ZM178.473 26.4688L179.382 26.0532C178.689 24.5349 177.68 23.1629 176.417 22.0142L175.744 22.7539L175.071 23.4936C176.14 24.4657 176.985 25.619 177.563 26.8843L178.473 26.4688ZM175.744 22.7539L176.417 22.0142C175.155 20.8661 173.664 19.9622 172.031 19.3514L171.681 20.2881L171.33 21.2247C172.732 21.7488 174.002 22.5212 175.071 23.4936L175.744 22.7539ZM171.681 20.2881L172.031 19.3514C170.398 18.7407 168.652 18.4345 166.893 18.4473L166.9 19.4473L166.908 20.4472C168.426 20.4362 169.929 20.7006 171.33 21.2247L171.681 20.2881ZM166.9 19.4473L166.893 18.4473L150.702 18.5703L150.71 19.5703L150.718 20.5703L166.908 20.4472L166.9 19.4473Z" fill="#8CB29B" mask="url(#path-10-inside-1_225_41)"/>
<path d="M217.78 2.47656H236.7C236.819 2.47656 236.934 2.52395 237.018 2.60834C237.103 2.69273 237.15 2.80723 237.15 2.92657V68.1266C237.15 68.2459 237.197 68.3604 237.282 68.4448C237.366 68.5292 237.481 68.5765 237.6 68.5765H279.06C279.119 68.5765 279.178 68.5882 279.232 68.6108C279.287 68.6335 279.336 68.6666 279.378 68.7084C279.42 68.7502 279.453 68.7998 279.476 68.8544C279.498 68.909 279.51 68.9675 279.51 69.0266V85.7266C279.51 85.7857 279.498 85.8441 279.476 85.8987C279.453 85.9533 279.42 86.003 279.378 86.0447C279.336 86.0865 279.287 86.1197 279.232 86.1423C279.178 86.1649 279.119 86.1766 279.06 86.1766H217.78C217.661 86.1766 217.546 86.1291 217.462 86.0447C217.377 85.9603 217.33 85.8459 217.33 85.7266V2.92657C217.33 2.80723 217.377 2.69273 217.462 2.60834C217.546 2.52395 217.661 2.47656 217.78 2.47656Z" fill="#32AB27"/>
<path d="M498.161 2.45784C520.968 2.4045 533.001 2.38116 534.261 2.38783C534.383 2.38783 534.5 2.43738 534.587 2.52552C534.673 2.61367 534.721 2.73321 534.721 2.85786L534.781 19.5878C534.781 19.6966 534.738 19.8009 534.661 19.8778C534.584 19.9546 534.48 19.9979 534.371 19.9979L508.461 20.0878C508.345 20.0878 508.233 20.1342 508.15 20.2167C508.068 20.2993 508.021 20.4111 508.021 20.5278L508.231 85.3679C508.233 85.4637 508.215 85.5589 508.179 85.648C508.143 85.737 508.089 85.8183 508.022 85.887C507.954 85.9557 507.873 86.0106 507.784 86.0485C507.694 86.0864 507.599 86.1066 507.501 86.1079C505.621 86.1212 502.575 86.1312 498.361 86.1378C494.141 86.1512 491.095 86.1545 489.221 86.1478C489.123 86.1478 489.026 86.1286 488.936 86.0913C488.845 86.054 488.763 85.9993 488.694 85.9305C488.626 85.8616 488.571 85.78 488.535 85.6903C488.498 85.6005 488.48 85.5046 488.481 85.4079L488.391 20.5679C488.391 20.4512 488.345 20.3392 488.262 20.2567C488.18 20.1742 488.068 20.1279 487.951 20.1279L462.041 20.1679C461.933 20.1679 461.828 20.1246 461.751 20.0477C461.675 19.9709 461.631 19.8666 461.631 19.7578L461.611 3.02784C461.611 2.96612 461.623 2.905 461.646 2.84797C461.669 2.79095 461.703 2.73915 461.746 2.69551C461.789 2.65186 461.839 2.61726 461.895 2.59364C461.951 2.57002 462.011 2.55786 462.071 2.55787C463.331 2.54454 475.361 2.51117 498.161 2.45784Z" fill="#32AB27"/>
</svg>
