<svg width="705" height="156" viewBox="0 0 705 156" fill="none" xmlns="http://www.w3.org/2000/svg">
<path d="M64.3359 32.4531C64.4362 32.7272 64.961 33.5394 65.9102 34.8898C66.3816 35.5617 66.8445 36.3656 67.2991 37.3015C70.2824 43.4736 72.9548 50.3376 74.8099 56.7404C75.7525 59.9827 76.304 63.2099 76.4645 66.4222C76.4665 66.4543 76.46 66.4864 76.4454 66.5152C76.4309 66.5439 76.4089 66.5683 76.3818 66.5857C76.3547 66.6031 76.3234 66.6129 76.2912 66.6141C76.259 66.6153 76.2271 66.6079 76.1988 66.5927C66.4116 61.4384 56.6847 53.9526 52.4179 43.2981C48.7377 34.1076 49.1288 25.0626 51.9215 15.6916C53.4825 10.4571 55.4931 5.27945 57.9532 0.158593C57.9735 0.116573 58.004 0.0802703 58.0419 0.0529843C58.0797 0.0256983 58.1238 0.00827946 58.1701 0.00230682C58.2164 -0.00366582 58.2634 0.00200536 58.307 0.0187862C58.3505 0.035567 58.3892 0.0629407 58.4195 0.0984288C59.1148 0.93742 59.6061 1.47223 59.8936 1.70286C63.9114 4.90173 68.0445 8.53847 72.2929 12.6131C78.9664 19.0208 83.8349 28.2013 84.3764 37.472C84.6739 42.5861 84.3079 47.2875 83.2784 51.576C82.563 54.561 81.4951 57.8668 80.0745 61.4935C80.0595 61.5319 80.0329 61.5646 79.9982 61.5869C79.9636 61.6092 79.9228 61.6201 79.8817 61.6178C79.8406 61.6156 79.8012 61.6005 79.7692 61.5745C79.7372 61.5486 79.7142 61.5132 79.7035 61.4735C76.8656 50.6535 71.3704 40.8162 64.4462 32.3879C64.4362 32.3764 64.4225 32.3689 64.4075 32.3665C64.3925 32.3641 64.3771 32.367 64.364 32.3747C64.3509 32.3824 64.3409 32.3945 64.3358 32.4088C64.3307 32.4231 64.3307 32.4388 64.3359 32.4531Z" fill="#474747"/>
<path d="M108.704 35.6297C103.063 36.6977 97.7786 39.8514 93.943 43.9277C93.1675 44.7533 92.5291 45.7394 92.0277 46.8859C92.0132 46.9147 91.9893 46.9377 91.9599 46.951C91.9305 46.9643 91.8974 46.967 91.8663 46.9588C91.8351 46.9505 91.8077 46.9318 91.7887 46.9057C91.7697 46.8797 91.7602 46.8479 91.7619 46.8157C92.2633 41.8586 94.2572 37.7656 97.7435 34.5367C100.174 32.2837 103.471 30.5874 107.636 29.4476C115.307 27.3467 124.172 29.0013 131.326 32.5161C131.347 32.5268 131.365 32.5432 131.377 32.5634C131.389 32.5837 131.395 32.6069 131.395 32.6305C131.394 32.654 131.387 32.6769 131.374 32.6966C131.361 32.7163 131.343 32.7319 131.321 32.7417C128.621 33.8548 126.236 35.5862 124.167 37.9361C121.055 41.4659 119.298 43.4647 118.897 43.9327C113.77 49.8859 107.318 52.6602 99.5435 52.2558C97.4076 52.1421 95.2365 51.9516 93.0304 51.6842C92.996 51.6798 92.9628 51.6679 92.9334 51.6495C92.9039 51.6311 92.8788 51.6065 92.8597 51.5774C92.8407 51.5484 92.8281 51.5155 92.823 51.4811C92.8178 51.4468 92.8202 51.4117 92.8299 51.3783C93.8778 47.8636 95.7931 44.6045 98.5106 42.0575C100.102 40.5634 101.033 39.711 101.303 39.5004C103.125 38.0598 105.607 36.8247 108.749 35.7951C108.771 35.7892 108.79 35.7747 108.801 35.755C108.812 35.7352 108.815 35.7118 108.809 35.6899C108.803 35.6679 108.789 35.6493 108.769 35.638C108.749 35.6267 108.726 35.6237 108.704 35.6297Z" fill="#8B8B8B"/>
<path d="M128.108 89.6847C127.065 89.4541 126.356 89.3588 125.982 89.3989C122.482 89.7733 119.98 89.9538 118.476 89.9404C112.59 89.8869 106.648 88.4947 100.652 85.7638C95.1832 83.2769 90.1191 79.819 85.4596 75.3901C83.6145 73.6352 82.2373 72.0375 81.3281 70.5968C86.4724 69.6342 91.9141 69.0525 97.6533 68.852C104.944 68.5946 111.652 69.6425 117.779 71.9957C117.792 72.0009 117.806 72.0047 117.82 72.007C117.833 72.0093 117.846 72.01 117.857 72.0091C117.868 72.0082 117.878 72.0056 117.885 72.0016C117.892 71.9975 117.897 71.9921 117.899 71.9857C117.903 71.979 117.906 71.9706 117.909 71.9606C117.912 71.9537 117.911 71.9453 117.907 71.9369C117.902 71.9286 117.894 71.9209 117.884 71.9155C107.97 66.7478 97.157 64.7423 85.4445 65.8988C85.3075 65.9122 85.0384 65.9489 84.6373 66.0091C84.6221 66.0107 84.6068 66.0072 84.5938 65.9993C84.5807 65.9915 84.5706 65.9795 84.5649 65.9653C84.5593 65.9512 84.5584 65.9356 84.5624 65.9208C84.5664 65.9061 84.5751 65.8931 84.5872 65.8838C92.7932 60.0743 101.828 57.6359 111.692 58.5685C122.432 59.5863 131.893 64.8058 139.279 72.5723C143.443 76.9511 147.007 81.6541 149.968 86.6814C149.99 86.72 150.001 86.7638 150 86.8082C149.999 86.8525 149.986 86.8957 149.962 86.9333C149.939 86.9708 149.905 87.0012 149.866 87.0213C149.826 87.0414 149.782 87.0504 149.738 87.0474C144.674 86.6998 139.663 87.0073 134.706 87.9699C131.654 88.5616 129.455 89.1332 128.108 89.6847Z" fill="#474747"/>
<path d="M81.327 70.597C82.2361 72.0377 83.6133 73.6354 85.4584 75.3903C90.118 79.8192 95.182 83.2771 100.65 85.764C106.647 88.4949 112.589 89.8871 118.475 89.9406C119.979 89.9539 122.481 89.7735 125.981 89.3991C126.355 89.359 127.064 89.4542 128.107 89.6849C121.161 92.8336 115.06 97.1806 109.806 102.726C109.778 102.755 109.759 102.79 109.749 102.828C109.739 102.866 109.739 102.906 109.749 102.945C109.759 102.983 109.779 103.018 109.806 103.046C109.834 103.075 109.868 103.096 109.906 103.107L127.59 108.557C127.652 108.577 127.708 108.612 127.752 108.659C127.796 108.707 127.827 108.765 127.843 108.828C127.858 108.891 127.856 108.957 127.838 109.019C127.82 109.082 127.787 109.138 127.741 109.184C104.566 131.596 93.8366 142.245 79.6423 155.603C79.522 155.713 79.425 155.766 79.3515 155.763C79.1476 155.756 79.0456 155.648 79.0456 155.437C79.0055 126.323 78.9487 101.633 78.8752 81.3668C78.8651 78.1346 79.3147 74.6716 80.2239 70.9781C80.2623 70.8174 80.3613 70.6788 80.4997 70.592C80.8172 70.3948 81.093 70.3964 81.327 70.597Z" fill="#8B8B8B"/>
<path d="M21.8008 90.7302C21.5233 90.4294 21.8191 90.3358 22.6882 90.4494C27.1071 91.0244 31.5411 91.1798 35.9901 90.9157C38.7912 90.7519 41.5271 90.2439 44.1978 89.3915C53.8545 86.3197 61.982 80.9999 68.5803 73.4323C68.8511 73.2585 69.1268 73.2117 69.4076 73.2919C69.4828 73.3148 69.5512 73.3561 69.6063 73.4122C69.6615 73.4682 69.7018 73.5372 69.7235 73.6128C70.6293 76.805 71.0822 79.8484 71.0822 82.7431C71.0655 121.106 71.0371 143.167 70.997 148.926C70.9769 152.172 70.9418 154.397 70.8917 155.6C70.8887 155.654 70.8703 155.707 70.8387 155.752C70.8072 155.796 70.7637 155.831 70.7136 155.852C70.6634 155.872 70.6087 155.878 70.5558 155.868C70.5029 155.858 70.4542 155.833 70.4154 155.795L21.6253 109.116C21.5981 109.091 21.5782 109.059 21.5675 109.023C21.5568 108.987 21.5557 108.95 21.5644 108.913C21.573 108.877 21.5911 108.844 21.6168 108.817C21.6425 108.79 21.6748 108.771 21.7105 108.76L39.7605 103.325C39.7997 103.313 39.8344 103.29 39.8607 103.259C39.887 103.228 39.9037 103.189 39.909 103.148C39.9142 103.107 39.9078 103.065 39.8904 103.028C39.873 102.99 39.8453 102.957 39.8106 102.934C39.0753 102.463 38.3048 101.873 37.4992 101.164C32.7461 96.9658 27.5132 93.4879 21.8008 90.7302Z" fill="black"/>
<path d="M68.5825 73.4303C61.9842 80.9979 53.8567 86.3177 44.1999 89.3895C41.5292 90.2419 38.7933 90.7499 35.9922 90.9137C31.5432 91.1778 27.1093 91.0224 22.6903 90.4474C21.8213 90.3338 21.5254 90.4274 21.8029 90.7282C14.8871 88.0943 7.74227 86.9912 0.368518 87.419C0.304215 87.4228 0.240006 87.4087 0.183129 87.3784C0.126252 87.3481 0.0789739 87.3027 0.0466427 87.2474C0.0143115 87.1922 -0.00178883 87.1292 0.000157759 87.0656C0.00210435 87.002 0.0220211 86.9403 0.0576595 86.8876C8.46093 74.0069 19.9828 62.3747 36.1376 60.7101C47.0478 59.5819 56.128 62.6655 65.1479 68.7674C65.1736 68.7889 65.1911 68.8186 65.1974 68.8515C65.2037 68.8844 65.1985 68.9185 65.1826 68.948C65.1666 68.9775 65.141 69.0005 65.11 69.0133C65.0791 69.0261 65.0446 69.0278 65.0126 69.0181C63.7123 68.4732 62.3519 68.159 60.9313 68.0755C55.9073 67.7796 51.4199 67.6894 46.7821 68.4314C41.113 69.3339 35.7164 71.0203 30.5922 73.4905C30.5669 73.5025 30.5472 73.5237 30.5369 73.5498C30.5267 73.5758 30.5267 73.6048 30.5371 73.6308L30.5421 73.6359C30.5489 73.6544 30.5627 73.6695 30.5805 73.6779C30.5983 73.6863 30.6187 73.6875 30.6373 73.681C36.0824 71.896 41.0863 70.9183 45.6489 70.7479C52.1603 70.5038 58.8238 71.1222 65.6393 72.603C66.6053 72.8102 67.5864 73.086 68.5825 73.4303Z" fill="#474747"/>
<path d="M620.071 61.9167C610.271 54.9034 599.371 51.61 587.371 52.0367C571.891 52.5967 558.381 60.1867 557.331 76.8067C555.931 98.9767 576.831 100.797 592.541 105.077C597.521 106.427 604.991 108.737 603.661 115.167C602.401 121.257 595.041 121.717 589.811 121.307C581.021 120.617 571.761 117.537 565.241 111.337C565.188 111.286 565.125 111.246 565.056 111.221C564.987 111.196 564.913 111.185 564.84 111.19C564.766 111.195 564.695 111.215 564.629 111.249C564.564 111.282 564.507 111.329 564.461 111.387L553.651 124.947C553.596 125.014 553.556 125.092 553.532 125.175C553.508 125.259 553.502 125.346 553.513 125.432C553.524 125.519 553.553 125.601 553.597 125.676C553.642 125.751 553.701 125.816 553.771 125.867C568.141 136.677 588.131 141.817 605.631 136.357C618.871 132.227 625.301 120.247 622.791 106.877C619.671 90.1867 597.981 87.3667 584.681 83.9167C581.951 83.2067 577.531 81.3567 577.081 78.1767C576.307 72.7367 578.777 69.81 584.491 69.3967C594.144 68.6967 602.891 71.3034 610.731 77.2167C610.758 77.237 610.79 77.2514 610.824 77.2589C610.857 77.2664 610.892 77.2668 610.926 77.2603C610.96 77.2537 610.992 77.2403 611.02 77.2207C611.048 77.2012 611.072 77.1759 611.091 77.1467L620.211 62.5867C620.276 62.4795 620.298 62.3511 620.272 62.2269C620.246 62.1028 620.174 61.9921 620.071 61.9167Z" fill="black"/>
<path d="M207.58 53.4482C184.767 53.4682 172.727 53.485 171.46 53.4983C171.4 53.4983 171.34 53.5104 171.284 53.534C171.228 53.5576 171.177 53.5923 171.135 53.6359C171.092 53.6796 171.058 53.7314 171.035 53.7884C171.012 53.8454 171 53.9065 171 53.9683V70.7083C171 70.7621 171.011 70.8154 171.031 70.8652C171.052 70.9149 171.082 70.9601 171.12 70.9982C171.158 71.0362 171.203 71.0664 171.253 71.087C171.303 71.1076 171.356 71.1183 171.41 71.1183H197.34C197.457 71.1183 197.569 71.1646 197.651 71.2471C197.734 71.3297 197.78 71.4416 197.78 71.5583V136.448C197.78 136.645 197.858 136.833 197.997 136.972C198.136 137.11 198.324 137.188 198.52 137.188C200.393 137.195 203.44 137.195 207.66 137.188C211.88 137.188 214.93 137.182 216.81 137.168C217.005 137.166 217.19 137.086 217.327 136.948C217.463 136.81 217.54 136.623 217.54 136.428L217.42 71.5383C217.42 71.4216 217.466 71.3096 217.549 71.2271C217.631 71.1446 217.743 71.0983 217.86 71.0983L243.79 71.0483C243.899 71.0483 244.003 71.0051 244.08 70.9282C244.157 70.8513 244.2 70.747 244.2 70.6382L244.17 53.8983C244.17 53.8365 244.158 53.7754 244.135 53.7184C244.112 53.6614 244.078 53.6096 244.035 53.5659C243.993 53.5223 243.942 53.4877 243.886 53.4641C243.83 53.4404 243.77 53.4283 243.71 53.4283C242.443 53.4216 230.4 53.4282 207.58 53.4482Z" fill="black"/>
<path d="M278.901 53.9775C278.901 53.8343 278.844 53.6969 278.742 53.5956C278.641 53.4944 278.504 53.4375 278.361 53.4375H259.601C259.457 53.4375 259.32 53.4944 259.219 53.5956C259.117 53.6969 259.061 53.8343 259.061 53.9775V136.677C259.061 136.821 259.117 136.958 259.219 137.059C259.32 137.161 259.457 137.217 259.601 137.217H278.361C278.504 137.217 278.641 137.161 278.742 137.059C278.844 136.958 278.901 136.821 278.901 136.677V53.9775Z" fill="black"/>
<path d="M387.78 53.4766C387.661 53.4766 387.546 53.5239 387.462 53.6083C387.377 53.6927 387.33 53.8072 387.33 53.9266V136.727C387.33 136.846 387.377 136.96 387.462 137.045C387.546 137.129 387.661 137.177 387.78 137.177H449.06C449.119 137.177 449.178 137.165 449.232 137.142C449.287 137.12 449.336 137.087 449.378 137.045C449.42 137.003 449.453 136.953 449.476 136.899C449.498 136.844 449.51 136.786 449.51 136.727V120.027C449.51 119.967 449.498 119.909 449.476 119.854C449.453 119.8 449.42 119.75 449.378 119.708C449.336 119.667 449.287 119.633 449.232 119.611C449.178 119.588 449.119 119.577 449.06 119.577H407.6C407.481 119.577 407.366 119.529 407.282 119.445C407.197 119.36 407.15 119.246 407.15 119.127V53.9266C407.15 53.8072 407.103 53.6927 407.018 53.6083C406.934 53.5239 406.819 53.4766 406.7 53.4766H387.78Z" fill="black"/>
<path d="M668.159 53.4578C645.359 53.5112 633.329 53.5445 632.069 53.5579C632.009 53.5579 631.949 53.57 631.893 53.5936C631.837 53.6173 631.787 53.6519 631.744 53.6955C631.701 53.7392 631.668 53.7909 631.644 53.848C631.621 53.905 631.609 53.9661 631.609 54.0278L631.629 70.7578C631.629 70.8666 631.673 70.9709 631.749 71.0477C631.826 71.1246 631.931 71.1679 632.039 71.1679L657.949 71.1279C658.066 71.1279 658.178 71.1742 658.26 71.2567C658.343 71.3392 658.389 71.4512 658.389 71.5679L658.479 136.408C658.478 136.505 658.496 136.601 658.533 136.69C658.569 136.78 658.624 136.862 658.693 136.93C658.761 136.999 658.843 137.054 658.934 137.091C659.024 137.129 659.121 137.148 659.219 137.148C661.093 137.155 664.139 137.151 668.359 137.138C672.573 137.131 675.619 137.121 677.499 137.108C677.597 137.107 677.693 137.086 677.782 137.048C677.871 137.011 677.952 136.956 678.02 136.887C678.088 136.818 678.141 136.737 678.177 136.648C678.213 136.559 678.231 136.464 678.229 136.368L678.019 71.5278C678.019 71.4111 678.066 71.2993 678.148 71.2167C678.231 71.1342 678.343 71.0878 678.459 71.0878L704.369 70.9979C704.478 70.9979 704.582 70.9546 704.659 70.8778C704.736 70.8009 704.779 70.6966 704.779 70.5878L704.719 53.8579C704.719 53.7332 704.671 53.6137 704.585 53.5255C704.498 53.4374 704.381 53.3878 704.259 53.3878C702.999 53.3812 690.966 53.4045 668.159 53.4578Z" fill="black"/>
<path d="M620.071 61.9167C620.174 61.9921 620.246 62.1028 620.272 62.2269C620.298 62.3511 620.276 62.4795 620.211 62.5867L611.091 77.1467C611.072 77.1759 611.048 77.2012 611.02 77.2207C610.992 77.2403 610.96 77.2537 610.926 77.2603C610.892 77.2668 610.857 77.2664 610.824 77.2589C610.79 77.2514 610.758 77.237 610.731 77.2167C602.891 71.3034 594.144 68.6967 584.491 69.3967C578.777 69.81 576.307 72.7367 577.081 78.1767C577.531 81.3567 581.951 83.2067 584.681 83.9167C597.981 87.3667 619.671 90.1867 622.791 106.877C625.301 120.247 618.871 132.227 605.631 136.357C588.131 141.817 568.141 136.677 553.771 125.867C553.701 125.816 553.642 125.751 553.597 125.676C553.553 125.601 553.524 125.519 553.513 125.432C553.502 125.346 553.508 125.259 553.532 125.175C553.556 125.092 553.596 125.014 553.651 124.947L564.461 111.387C564.507 111.329 564.564 111.282 564.629 111.249C564.695 111.215 564.766 111.195 564.84 111.19C564.913 111.185 564.987 111.196 565.056 111.221C565.125 111.246 565.188 111.286 565.241 111.337C571.761 117.537 581.021 120.617 589.811 121.307C595.041 121.717 602.401 121.257 603.661 115.167C604.991 108.737 597.521 106.427 592.541 105.077C576.831 100.797 555.931 98.9767 557.331 76.8067C558.381 60.1867 571.891 52.5967 587.371 52.0367C599.371 51.61 610.271 54.9034 620.071 61.9167Z" fill="black"/>
<path d="M529.251 137.21L521.461 119.45C521.422 119.359 521.358 119.282 521.277 119.227C521.195 119.172 521.099 119.142 521.001 119.14H486.071C485.972 119.142 485.877 119.172 485.795 119.227C485.713 119.282 485.649 119.359 485.611 119.45L477.831 137.19C477.792 137.281 477.728 137.358 477.647 137.413C477.565 137.468 477.469 137.498 477.371 137.5H458.511C458.427 137.5 458.343 137.479 458.269 137.44C458.195 137.4 458.131 137.342 458.085 137.272C458.038 137.201 458.01 137.12 458.002 137.036C457.994 136.952 458.008 136.868 458.041 136.79L494.571 53.3101C494.609 53.2195 494.673 53.142 494.755 53.087C494.837 53.032 494.932 53.0018 495.031 53H512.801C512.899 53.0018 512.995 53.032 513.077 53.087C513.158 53.142 513.222 53.2195 513.261 53.3101L549.851 136.81C549.884 136.888 549.897 136.972 549.89 137.056C549.882 137.14 549.854 137.221 549.807 137.292C549.76 137.362 549.697 137.42 549.623 137.459C549.548 137.499 549.465 137.52 549.381 137.52H529.711C529.612 137.518 529.517 137.488 529.435 137.433C529.353 137.378 529.289 137.301 529.251 137.21ZM492.711 101.97C492.691 102.016 492.683 102.066 492.687 102.117C492.691 102.167 492.708 102.215 492.736 102.256C492.764 102.298 492.802 102.332 492.846 102.356C492.891 102.379 492.941 102.391 492.991 102.39L514.201 102.27C514.25 102.27 514.298 102.258 514.341 102.236C514.385 102.213 514.422 102.18 514.449 102.139C514.477 102.099 514.494 102.052 514.5 102.004C514.505 101.955 514.499 101.906 514.481 101.86L503.741 76.73C503.717 76.6769 503.677 76.632 503.628 76.6009C503.578 76.5698 503.521 76.5538 503.463 76.5549C503.404 76.5559 503.347 76.574 503.299 76.6069C503.251 76.6398 503.213 76.6861 503.191 76.7401L492.711 101.97Z" fill="black"/>
<path d="M207.66 137.184C203.44 137.191 200.393 137.191 198.52 137.184C198.324 137.184 198.136 137.106 197.997 136.968C197.858 136.829 197.78 136.641 197.78 136.444V71.5544C197.78 71.4377 197.734 71.3257 197.651 71.2432C197.569 71.1607 197.457 71.1144 197.34 71.1144H171.41C171.356 71.1144 171.303 71.1037 171.253 71.0831C171.203 71.0625 171.158 71.0323 171.12 70.9943C171.082 70.9562 171.052 70.911 171.031 70.8613C171.011 70.8115 171 70.7582 171 70.7043V53.9644C171 53.9026 171.012 53.8415 171.035 53.7845C171.058 53.7275 171.092 53.6757 171.135 53.632C171.177 53.5884 171.228 53.5537 171.284 53.5301C171.34 53.5065 171.4 53.4944 171.46 53.4944C172.727 53.4811 184.767 53.4643 207.58 53.4443C230.4 53.4243 242.443 53.4177 243.71 53.4244C243.77 53.4244 243.83 53.4365 243.886 53.4601C243.942 53.4838 243.993 53.5184 244.035 53.562C244.078 53.6057 244.112 53.6575 244.135 53.7145C244.158 53.7715 244.17 53.8326 244.17 53.8944L244.2 70.6343C244.2 70.7431 244.157 70.8474 244.08 70.9243C244.003 71.0011 243.899 71.0444 243.79 71.0444L217.86 71.0944C217.743 71.0944 217.631 71.1407 217.549 71.2232C217.466 71.3057 217.42 71.4177 217.42 71.5344L217.54 136.424C217.54 136.619 217.463 136.806 217.327 136.944C217.19 137.083 217.005 137.162 216.81 137.164C214.93 137.178 211.88 137.184 207.66 137.184Z" fill="black"/>
<path d="M278.361 53.4375H259.601C259.302 53.4375 259.061 53.6792 259.061 53.9775V136.677C259.061 136.976 259.302 137.217 259.601 137.217H278.361C278.659 137.217 278.901 136.976 278.901 136.677V53.9775C278.901 53.6792 278.659 53.4375 278.361 53.4375Z" fill="black"/>
<path d="M300.51 53.0684C315.983 52.9658 328.62 52.9794 338.42 53.1094C357.69 53.3659 371.43 65.4408 369.41 86.2363C367.56 105.319 353.33 112.973 336.43 113.599C333.023 113.722 327.7 113.718 320.46 113.588C320.391 113.587 320.322 113.6 320.258 113.627C320.194 113.654 320.135 113.694 320.086 113.744C320.037 113.795 319.997 113.855 319.971 113.922C319.944 113.988 319.93 114.06 319.93 114.132V138.293C319.93 138.481 319.857 138.66 319.728 138.793C319.598 138.926 319.423 139.001 319.24 139.001H300.73C300.635 139.001 300.539 138.981 300.45 138.943C300.362 138.906 300.282 138.851 300.214 138.781C300.146 138.712 300.092 138.629 300.056 138.538C300.019 138.447 300 138.35 300 138.252V53.5918C300 53.4531 300.054 53.3198 300.149 53.2217C300.245 53.1236 300.375 53.0684 300.51 53.0684ZM320.71 70.5703C320.484 70.573 320.268 70.6678 320.108 70.833C319.949 70.9982 319.86 71.221 319.86 71.4531L320.02 95.2549C320.02 95.3715 320.042 95.4871 320.086 95.5947C320.13 95.7024 320.195 95.7998 320.275 95.8818C320.356 95.9638 320.452 96.0285 320.558 96.0723C320.663 96.116 320.776 96.138 320.89 96.1367L337.08 96.0137C340.386 95.9896 343.548 94.7559 345.871 92.584C348.194 90.4121 349.488 87.4792 349.47 84.4307L349.45 81.8662C349.441 80.3552 349.108 78.8606 348.473 77.4688C347.837 76.0771 346.91 74.8152 345.744 73.7549C344.579 72.6946 343.198 71.8565 341.681 71.2891C340.163 70.7216 338.539 70.4353 336.9 70.4473L320.71 70.5703Z" fill="black"/>
<path d="M387.78 53.4766H406.7C406.819 53.4766 406.934 53.5239 407.018 53.6083C407.103 53.6927 407.15 53.8072 407.15 53.9266V119.127C407.15 119.246 407.197 119.36 407.282 119.445C407.366 119.529 407.481 119.577 407.6 119.577H449.06C449.119 119.577 449.178 119.588 449.232 119.611C449.287 119.633 449.336 119.667 449.378 119.708C449.42 119.75 449.453 119.8 449.476 119.854C449.498 119.909 449.51 119.967 449.51 120.027V136.727C449.51 136.786 449.498 136.844 449.476 136.899C449.453 136.953 449.42 137.003 449.378 137.045C449.336 137.087 449.287 137.12 449.232 137.142C449.178 137.165 449.119 137.177 449.06 137.177H387.78C387.661 137.177 387.546 137.129 387.462 137.045C387.377 136.96 387.33 136.846 387.33 136.727V53.9266C387.33 53.8072 387.377 53.6927 387.462 53.6083C387.546 53.5239 387.661 53.4766 387.78 53.4766Z" fill="black"/>
<path d="M668.161 53.4578C690.968 53.4045 703.001 53.3812 704.261 53.3878C704.383 53.3878 704.5 53.4374 704.587 53.5255C704.673 53.6137 704.721 53.7332 704.721 53.8579L704.781 70.5878C704.781 70.6966 704.738 70.8009 704.661 70.8778C704.584 70.9546 704.48 70.9979 704.371 70.9979L678.461 71.0878C678.345 71.0878 678.233 71.1342 678.15 71.2167C678.068 71.2993 678.021 71.4111 678.021 71.5278L678.231 136.368C678.233 136.464 678.215 136.559 678.179 136.648C678.143 136.737 678.089 136.818 678.022 136.887C677.954 136.956 677.873 137.011 677.784 137.048C677.694 137.086 677.599 137.107 677.501 137.108C675.621 137.121 672.575 137.131 668.361 137.138C664.141 137.151 661.095 137.155 659.221 137.148C659.123 137.148 659.026 137.129 658.936 137.091C658.845 137.054 658.763 136.999 658.694 136.93C658.626 136.862 658.571 136.78 658.535 136.69C658.498 136.601 658.48 136.505 658.481 136.408L658.391 71.5679C658.391 71.4512 658.345 71.3392 658.262 71.2567C658.18 71.1742 658.068 71.1279 657.951 71.1279L632.041 71.1679C631.933 71.1679 631.828 71.1246 631.751 71.0477C631.675 70.9709 631.631 70.8666 631.631 70.7578L631.611 54.0278C631.611 53.9661 631.623 53.905 631.646 53.848C631.669 53.7909 631.703 53.7392 631.746 53.6955C631.789 53.6519 631.839 53.6173 631.895 53.5936C631.951 53.57 632.011 53.5579 632.071 53.5579C633.331 53.5445 645.361 53.5112 668.161 53.4578Z" fill="black"/>
</svg>
