<svg width="706" height="158" viewBox="0 0 706 158" fill="none" xmlns="http://www.w3.org/2000/svg">
<path d="M65.4462 33.3879C72.3704 41.8162 77.8656 51.6535 80.7035 62.4735C80.7142 62.5132 80.7372 62.5486 80.7692 62.5745C80.8012 62.6005 80.8406 62.6156 80.8817 62.6178C80.9228 62.6201 80.9636 62.6092 80.9982 62.5869C81.0329 62.5646 81.0595 62.5319 81.0745 62.4935C82.4951 58.8668 83.563 55.561 84.2784 52.576C85.3079 48.2875 85.6739 43.5861 85.3764 38.472C84.8349 29.2013 79.9664 20.0208 73.2929 13.6131C69.0445 9.53847 64.9114 5.90173 60.8936 2.70286C60.6061 2.47223 60.1148 1.93742 59.4195 1.09843C59.3892 1.06294 59.3505 1.03557 59.307 1.01879C59.2634 1.00201 59.2164 0.996334 59.1701 1.00231C59.1238 1.00828 59.0797 1.0257 59.0419 1.05298C59.004 1.08027 58.9735 1.11657 58.9532 1.15859C56.4931 6.27945 54.4825 11.4571 52.9215 16.6916C50.1288 26.0626 49.7377 35.1076 53.4179 44.2981C57.6847 54.9526 67.4116 62.4384 77.1988 67.5927C77.2271 67.6079 77.259 67.6153 77.2912 67.6141C77.3234 67.6129 77.3547 67.6031 77.3818 67.5857C77.4089 67.5683 77.4309 67.5439 77.4454 67.5152C77.46 67.4864 77.4665 67.4543 77.4645 67.4222C77.304 64.2099 76.7525 60.9827 75.8099 57.7404C73.9548 51.3376 71.2824 44.4736 68.2991 38.3015C67.8445 37.3656 67.3816 36.5617 66.9102 35.8898C65.961 34.5394 65.4362 33.7272 65.3359 33.4531C65.3307 33.4388 65.3307 33.4231 65.3358 33.4088C65.3409 33.3945 65.3509 33.3824 65.364 33.3747C65.3771 33.367 65.3925 33.3641 65.4075 33.3665C65.4225 33.3689 65.4362 33.3764 65.4462 33.3879Z" stroke="#A0D7A0" stroke-width="2"/>
<path d="M109.747 36.7951C106.605 37.8247 104.123 39.0598 102.301 40.5004C102.031 40.711 101.1 41.5634 99.5087 43.0575C96.7911 45.6045 94.8758 48.8636 93.8279 52.3783C93.8182 52.4117 93.8159 52.4468 93.821 52.4811C93.8262 52.5155 93.8387 52.5484 93.8578 52.5774C93.8768 52.6065 93.9019 52.6311 93.9314 52.6495C93.9609 52.6679 93.994 52.6798 94.0285 52.6842C96.2346 52.9516 98.4056 53.1421 100.542 53.2558C108.316 53.6602 114.768 50.8859 119.895 44.9327C120.296 44.4647 122.053 42.4659 125.165 38.9361C127.234 36.5862 129.619 34.8548 132.32 33.7417C132.341 33.7319 132.359 33.7163 132.372 33.6966C132.385 33.6769 132.392 33.654 132.393 33.6305C132.393 33.6069 132.387 33.5837 132.375 33.5634C132.363 33.5432 132.346 33.5268 132.325 33.5161C125.17 30.0013 116.305 28.3467 108.634 30.4476C104.469 31.5874 101.172 33.2837 98.7415 35.5367C95.2552 38.7656 93.2613 42.8586 92.76 47.8157C92.7583 47.8479 92.7677 47.8797 92.7867 47.9057C92.8057 47.9318 92.8331 47.9505 92.8643 47.9588C92.8955 47.967 92.9286 47.9643 92.958 47.951C92.9873 47.9377 93.0113 47.9147 93.0257 47.8859C93.5271 46.7394 94.1655 45.7533 94.941 44.9277C98.7766 40.8514 104.061 37.6977 109.702 36.6297C109.724 36.6237 109.747 36.6267 109.767 36.638C109.787 36.6493 109.801 36.6679 109.807 36.6899C109.813 36.7118 109.81 36.7352 109.799 36.755C109.788 36.7747 109.769 36.7892 109.747 36.7951Z" stroke="#C3E39E" stroke-width="2"/>
<path d="M82.327 71.597C82.093 71.3964 81.8172 71.3948 81.4997 71.592C81.3613 71.6788 81.2623 71.8174 81.2239 71.9781C80.3147 75.6716 79.8651 79.1346 79.8752 82.3668C79.9487 102.633 80.0055 127.323 80.0456 156.437C80.0456 156.648 80.1476 156.756 80.3515 156.763C80.425 156.766 80.522 156.713 80.6423 156.603C94.8366 143.245 105.566 132.596 128.741 110.184C128.787 110.138 128.82 110.082 128.838 110.019C128.856 109.957 128.858 109.891 128.843 109.828C128.827 109.765 128.796 109.707 128.752 109.659C128.708 109.612 128.652 109.577 128.59 109.557L110.906 104.107C110.868 104.096 110.834 104.075 110.806 104.046C110.779 104.018 110.759 103.983 110.749 103.945C110.739 103.906 110.739 103.866 110.749 103.828C110.759 103.79 110.778 103.755 110.806 103.726C116.06 98.1806 122.161 93.8336 129.107 90.6849" stroke="#C3E39E" stroke-width="2"/>
<path d="M129.108 90.6847C130.455 90.1332 132.654 89.5616 135.706 88.9699C140.663 88.0073 145.674 87.6998 150.738 88.0474C150.782 88.0504 150.826 88.0414 150.866 88.0213C150.905 88.0012 150.939 87.9708 150.962 87.9333C150.986 87.8957 150.999 87.8525 151 87.8082C151.001 87.7638 150.99 87.72 150.968 87.6814C148.007 82.6541 144.443 77.9511 140.279 73.5723C132.893 65.8058 123.432 60.5863 112.692 59.5685C102.828 58.6359 93.7932 61.0743 85.5872 66.8838C85.5751 66.8931 85.5664 66.9061 85.5624 66.9208C85.5584 66.9356 85.5593 66.9512 85.5649 66.9653C85.5706 66.9795 85.5807 66.9915 85.5938 66.9993C85.6068 67.0072 85.6221 67.0107 85.6373 67.0091C86.0384 66.9489 86.3075 66.9122 86.4445 66.8988C98.157 65.7423 108.97 67.7478 118.884 72.9155C118.894 72.9209 118.902 72.9286 118.907 72.9369C118.911 72.9453 118.912 72.9537 118.909 72.9606C118.906 72.9706 118.903 72.979 118.899 72.9857C118.897 72.9921 118.892 72.9975 118.885 73.0016C118.878 73.0056 118.868 73.0082 118.857 73.0091C118.846 73.01 118.833 73.0093 118.82 73.007C118.806 73.0047 118.792 73.0009 118.779 72.9957C112.652 70.6425 105.944 69.5946 98.6533 69.852C92.9141 70.0525 87.4724 70.6342 82.3281 71.5968" stroke="#A0D7A0" stroke-width="2"/>
<path d="M129.108 90.6855C128.065 90.4549 127.356 90.3596 126.982 90.3997C123.482 90.7741 120.98 90.9546 119.476 90.9412C113.59 90.8878 107.648 89.4956 101.652 86.7647C96.1832 84.2778 91.1191 80.8199 86.4596 76.3909C84.6145 74.6361 83.2373 73.0383 82.3281 71.5977" stroke="#68BC44" stroke-width="2"/>
<path d="M22.8008 91.7302C28.5132 94.4879 33.7461 97.9658 38.4992 102.164C39.3048 102.873 40.0753 103.463 40.8106 103.934C40.8453 103.957 40.873 103.99 40.8904 104.028C40.9078 104.065 40.9142 104.107 40.909 104.148C40.9037 104.189 40.887 104.228 40.8607 104.259C40.8344 104.29 40.7997 104.313 40.7605 104.325L22.7105 109.76C22.6748 109.771 22.6425 109.79 22.6168 109.817C22.5911 109.844 22.573 109.877 22.5644 109.913C22.5557 109.95 22.5568 109.987 22.5675 110.023C22.5782 110.059 22.5981 110.091 22.6253 110.116L71.4154 156.795C71.4542 156.833 71.5029 156.858 71.5558 156.868C71.6087 156.878 71.6634 156.872 71.7136 156.852C71.7637 156.831 71.8072 156.796 71.8387 156.752C71.8703 156.707 71.8887 156.654 71.8917 156.6C71.9418 155.397 71.9769 153.172 71.997 149.926C72.0371 144.167 72.0655 122.106 72.0822 83.7431C72.0822 80.8484 71.6293 77.805 70.7235 74.6128C70.7018 74.5372 70.6615 74.4682 70.6063 74.4122C70.5512 74.3561 70.4828 74.3148 70.4076 74.2919C70.1268 74.2117 69.8511 74.2585 69.5803 74.4323" stroke="#8CB29B" stroke-width="2"/>
<path d="M69.5825 74.4303C68.5864 74.086 67.6053 73.8102 66.6393 73.603C59.8238 72.1222 53.1603 71.5038 46.6489 71.7479C42.0863 71.9183 37.0824 72.896 31.6373 74.681C31.6187 74.6875 31.5983 74.6863 31.5805 74.6779C31.5627 74.6695 31.5489 74.6544 31.5421 74.6359L31.5371 74.6308C31.5267 74.6048 31.5267 74.5758 31.5369 74.5498C31.5472 74.5237 31.5669 74.5025 31.5922 74.4905C36.7164 72.0203 42.113 70.3339 47.7821 69.4314C52.4199 68.6894 56.9073 68.7796 61.9313 69.0755C63.3519 69.159 64.7123 69.4732 66.0126 70.0181C66.0446 70.0278 66.0791 70.0261 66.11 70.0133C66.141 70.0005 66.1666 69.9775 66.1826 69.948C66.1985 69.9185 66.2037 69.8844 66.1974 69.8515C66.1911 69.8186 66.1736 69.7889 66.1479 69.7674C57.128 63.6655 48.0478 60.5819 37.1376 61.7101C20.9828 63.3747 9.46093 75.0069 1.05766 87.8876C1.02202 87.9403 1.0021 88.002 1.00016 88.0656C0.998211 88.1292 1.01431 88.1922 1.04664 88.2474C1.07897 88.3027 1.12625 88.3481 1.18313 88.3784C1.24001 88.4087 1.30422 88.4228 1.36852 88.419C8.74227 87.9912 15.8871 89.0942 22.8029 91.7282" stroke="#A0D7A0" stroke-width="2"/>
<path d="M69.5814 74.4297C62.9832 81.9973 54.8556 87.3171 45.1989 90.3889C42.5282 91.2413 39.7923 91.7493 36.9912 91.9131C32.5422 92.1772 28.1082 92.0218 23.6893 91.4468C22.8203 91.3332 22.5244 91.4268 22.8019 91.7276" stroke="#318C41" stroke-width="2"/>
<path d="M65.3359 33.4531C65.4362 33.7272 65.961 34.5394 66.9102 35.8898C67.3816 36.5617 67.8445 37.3656 68.2991 38.3015C71.2824 44.4736 73.9548 51.3376 75.8099 57.7404C76.7525 60.9827 77.304 64.2099 77.4645 67.4222C77.4665 67.4543 77.46 67.4864 77.4454 67.5152C77.4309 67.5439 77.4089 67.5683 77.3818 67.5857C77.3547 67.6031 77.3234 67.6129 77.2912 67.6141C77.259 67.6153 77.2271 67.6079 77.1988 67.5927C67.4116 62.4384 57.6847 54.9526 53.4179 44.2981C49.7377 35.1076 50.1288 26.0626 52.9215 16.6916C54.4825 11.4571 56.4931 6.27945 58.9532 1.15859C58.9735 1.11657 59.004 1.08027 59.0419 1.05298C59.0797 1.0257 59.1238 1.00828 59.1701 1.00231C59.2164 0.996334 59.2634 1.00201 59.307 1.01879C59.3505 1.03557 59.3892 1.06294 59.4195 1.09843C60.1148 1.93742 60.6061 2.47223 60.8936 2.70286C64.9114 5.90173 69.0445 9.53847 73.2929 13.6131C79.9664 20.0208 84.8349 29.2013 85.3764 38.472C85.6739 43.5861 85.3079 48.2875 84.2784 52.576C83.563 55.561 82.4951 58.8668 81.0745 62.4935C81.0595 62.5319 81.0329 62.5646 80.9982 62.5869C80.9636 62.6092 80.9228 62.6201 80.8817 62.6178C80.8406 62.6156 80.8012 62.6005 80.7692 62.5745C80.7372 62.5486 80.7142 62.5132 80.7035 62.4735C77.8656 51.6535 72.3704 41.8162 65.4462 33.3879C65.4362 33.3764 65.4225 33.3689 65.4075 33.3665C65.3925 33.3641 65.3771 33.367 65.364 33.3747C65.3509 33.3824 65.3409 33.3945 65.3358 33.4088C65.3307 33.4231 65.3307 33.4388 65.3359 33.4531Z" fill="#32AB27"/>
<path d="M109.704 36.6297C104.063 37.6977 98.7786 40.8514 94.943 44.9277C94.1675 45.7533 93.5291 46.7394 93.0277 47.8859C93.0132 47.9147 92.9893 47.9377 92.9599 47.951C92.9305 47.9643 92.8974 47.967 92.8663 47.9588C92.8351 47.9505 92.8077 47.9318 92.7887 47.9057C92.7697 47.8797 92.7602 47.8479 92.7619 47.8157C93.2633 42.8586 95.2572 38.7656 98.7435 35.5367C101.174 33.2837 104.471 31.5874 108.636 30.4476C116.307 28.3467 125.172 30.0013 132.326 33.5161C132.347 33.5268 132.365 33.5432 132.377 33.5634C132.389 33.5837 132.395 33.6069 132.395 33.6305C132.394 33.654 132.387 33.6769 132.374 33.6966C132.361 33.7163 132.343 33.7319 132.321 33.7417C129.621 34.8548 127.236 36.5862 125.167 38.9361C122.055 42.4659 120.298 44.4647 119.897 44.9327C114.77 50.8859 108.318 53.6602 100.543 53.2558C98.4076 53.1421 96.2365 52.9516 94.0304 52.6842C93.996 52.6798 93.9628 52.6679 93.9334 52.6495C93.9039 52.6311 93.8788 52.6065 93.8597 52.5774C93.8407 52.5484 93.8281 52.5155 93.823 52.4811C93.8178 52.4468 93.8202 52.4117 93.8299 52.3783C94.8778 48.8636 96.7931 45.6045 99.5106 43.0575C101.102 41.5634 102.033 40.711 102.303 40.5004C104.125 39.0598 106.607 37.8247 109.749 36.7951C109.771 36.7892 109.79 36.7747 109.801 36.755C109.812 36.7352 109.815 36.7118 109.809 36.6899C109.803 36.6679 109.789 36.6493 109.769 36.638C109.749 36.6267 109.726 36.6237 109.704 36.6297Z" fill="#93CC4F"/>
<path d="M129.108 90.6847C128.065 90.4541 127.356 90.3588 126.982 90.3989C123.482 90.7733 120.98 90.9538 119.476 90.9404C113.59 90.8869 107.648 89.4947 101.652 86.7638C96.1831 84.2769 91.1191 80.819 86.4596 76.3901C84.6145 74.6352 83.2373 73.0375 82.3281 71.5968C87.4724 70.6342 92.9141 70.0525 98.6533 69.852C105.944 69.5946 112.652 70.6425 118.779 72.9957C118.792 73.0009 118.806 73.0047 118.82 73.007C118.833 73.0093 118.846 73.01 118.857 73.0091C118.868 73.0082 118.878 73.0056 118.885 73.0016C118.892 72.9975 118.897 72.9921 118.899 72.9857C118.903 72.979 118.906 72.9706 118.909 72.9606C118.912 72.9537 118.911 72.9453 118.907 72.9369C118.902 72.9286 118.894 72.9209 118.884 72.9155C108.97 67.7478 98.157 65.7423 86.4445 66.8988C86.3075 66.9122 86.0384 66.9489 85.6373 67.0091C85.6221 67.0107 85.6068 67.0072 85.5938 66.9993C85.5807 66.9915 85.5706 66.9795 85.5649 66.9653C85.5593 66.9512 85.5584 66.9356 85.5624 66.9208C85.5664 66.9061 85.5751 66.8931 85.5872 66.8838C93.7932 61.0743 102.828 58.6359 112.692 59.5685C123.432 60.5863 132.893 65.8058 140.279 73.5723C144.443 77.9511 148.007 82.6541 150.968 87.6814C150.99 87.72 151.001 87.7638 151 87.8082C150.999 87.8525 150.986 87.8957 150.962 87.9333C150.939 87.9708 150.905 88.0012 150.866 88.0213C150.826 88.0414 150.782 88.0504 150.738 88.0474C145.674 87.6998 140.663 88.0073 135.706 88.9699C132.654 89.5616 130.455 90.1332 129.108 90.6847Z" fill="#32AB27"/>
<path d="M69.5825 74.4303C62.9842 81.9979 54.8567 87.3177 45.1999 90.3895C42.5292 91.2419 39.7933 91.7499 36.9922 91.9137C32.5432 92.1778 28.1093 92.0224 23.6903 91.4474C22.8213 91.3338 22.5254 91.4274 22.8029 91.7282C15.8871 89.0942 8.74227 87.9912 1.36852 88.419C1.30422 88.4228 1.24001 88.4087 1.18313 88.3784C1.12625 88.3481 1.07897 88.3027 1.04664 88.2474C1.01431 88.1922 0.998211 88.1292 1.00016 88.0656C1.0021 88.002 1.02202 87.9403 1.05766 87.8876C9.46093 75.0069 20.9828 63.3747 37.1376 61.7101C48.0478 60.5819 57.128 63.6655 66.1479 69.7674C66.1736 69.7889 66.1911 69.8186 66.1974 69.8515C66.2037 69.8844 66.1985 69.9185 66.1826 69.948C66.1666 69.9775 66.141 70.0005 66.11 70.0133C66.0791 70.0261 66.0446 70.0278 66.0126 70.0181C64.7123 69.4732 63.3519 69.159 61.9313 69.0755C56.9073 68.7796 52.4199 68.6894 47.7821 69.4314C42.113 70.3339 36.7164 72.0203 31.5922 74.4905C31.5669 74.5025 31.5472 74.5237 31.5369 74.5498C31.5267 74.5758 31.5267 74.6048 31.5371 74.6308L31.5421 74.6359C31.5489 74.6544 31.5627 74.6695 31.5805 74.6779C31.5983 74.6863 31.6187 74.6875 31.6373 74.681C37.0824 72.896 42.0863 71.9183 46.6489 71.7479C53.1603 71.5038 59.8238 72.1222 66.6393 73.603C67.6053 73.8102 68.5864 74.086 69.5825 74.4303Z" fill="#32AB27"/>
<path d="M82.327 71.597C83.2361 73.0377 84.6133 74.6354 86.4584 76.3903C91.118 80.8192 96.182 84.2771 101.65 86.764C107.647 89.4949 113.589 90.8871 119.475 90.9406C120.979 90.9539 123.481 90.7735 126.981 90.3991C127.355 90.359 128.064 90.4542 129.107 90.6849C122.161 93.8336 116.06 98.1806 110.806 103.726C110.778 103.755 110.759 103.79 110.749 103.828C110.739 103.866 110.739 103.906 110.749 103.945C110.759 103.983 110.779 104.018 110.806 104.046C110.834 104.075 110.868 104.096 110.906 104.107L128.59 109.557C128.652 109.577 128.708 109.612 128.752 109.659C128.796 109.707 128.827 109.765 128.843 109.828C128.858 109.891 128.856 109.957 128.838 110.019C128.82 110.082 128.787 110.138 128.741 110.184C105.566 132.596 94.8366 143.245 80.6423 156.603C80.522 156.713 80.425 156.766 80.3515 156.763C80.1476 156.756 80.0456 156.648 80.0456 156.437C80.0055 127.323 79.9487 102.633 79.8752 82.3668C79.8651 79.1346 80.3147 75.6716 81.2239 71.9781C81.2623 71.8174 81.3613 71.6788 81.4997 71.592C81.8172 71.3948 82.093 71.3964 82.327 71.597Z" fill="#93CC4F"/>
<path d="M22.8008 91.7302C22.5233 91.4294 22.8191 91.3358 23.6882 91.4494C28.1071 92.0244 32.5411 92.1798 36.9901 91.9157C39.7912 91.7519 42.5271 91.2439 45.1978 90.3915C54.8545 87.3197 62.982 81.9999 69.5803 74.4323C69.8511 74.2585 70.1268 74.2117 70.4076 74.2919C70.4828 74.3148 70.5512 74.3561 70.6063 74.4122C70.6615 74.4682 70.7018 74.5372 70.7235 74.6128C71.6293 77.805 72.0822 80.8484 72.0822 83.7431C72.0655 122.106 72.0371 144.167 71.997 149.926C71.9769 153.172 71.9418 155.397 71.8917 156.6C71.8887 156.654 71.8703 156.707 71.8387 156.752C71.8072 156.796 71.7637 156.831 71.7136 156.852C71.6634 156.872 71.6087 156.878 71.5558 156.868C71.5029 156.858 71.4542 156.833 71.4154 156.795L22.6253 110.116C22.5981 110.091 22.5782 110.059 22.5675 110.023C22.5568 109.987 22.5557 109.95 22.5644 109.913C22.573 109.877 22.5911 109.844 22.6168 109.817C22.6425 109.79 22.6748 109.771 22.7105 109.76L40.7605 104.325C40.7997 104.313 40.8344 104.29 40.8607 104.259C40.887 104.228 40.9037 104.189 40.909 104.148C40.9142 104.107 40.9078 104.065 40.8904 104.028C40.873 103.99 40.8453 103.957 40.8106 103.934C40.0753 103.463 39.3048 102.873 38.4992 102.164C33.7461 97.9658 28.5132 94.4879 22.8008 91.7302Z" fill="#1D673C"/>
<path d="M621.071 63.9167C611.271 56.9034 600.371 53.61 588.371 54.0367C572.891 54.5967 559.381 62.1867 558.331 78.8067C556.931 100.977 577.831 102.797 593.541 107.077C598.521 108.427 605.991 110.737 604.661 117.167C603.401 123.257 596.041 123.717 590.811 123.307C582.021 122.617 572.761 119.537 566.241 113.337C566.188 113.286 566.125 113.246 566.056 113.221C565.987 113.196 565.913 113.185 565.84 113.19C565.766 113.195 565.695 113.215 565.629 113.249C565.564 113.282 565.507 113.329 565.461 113.387L554.651 126.947C554.596 127.014 554.556 127.092 554.532 127.175C554.508 127.259 554.502 127.346 554.513 127.432C554.524 127.519 554.553 127.601 554.597 127.676C554.642 127.751 554.701 127.816 554.771 127.867C569.141 138.677 589.131 143.817 606.631 138.357C619.871 134.227 626.301 122.247 623.791 108.877C620.671 92.1867 598.981 89.3667 585.681 85.9167C582.951 85.2067 578.531 83.3567 578.081 80.1767C577.307 74.7367 579.777 71.81 585.491 71.3967C595.144 70.6967 603.891 73.3034 611.731 79.2167C611.758 79.237 611.79 79.2514 611.824 79.2589C611.857 79.2664 611.892 79.2668 611.926 79.2603C611.96 79.2537 611.992 79.2403 612.02 79.2207C612.048 79.2012 612.072 79.1759 612.091 79.1467L621.211 64.5867C621.276 64.4795 621.298 64.3511 621.272 64.2269C621.246 64.1028 621.174 63.9921 621.071 63.9167Z" fill="#32AB27"/>
<path d="M208.58 55.4482C185.767 55.4682 173.727 55.485 172.46 55.4983C172.4 55.4983 172.34 55.5104 172.284 55.534C172.228 55.5576 172.177 55.5923 172.135 55.6359C172.092 55.6796 172.058 55.7314 172.035 55.7884C172.012 55.8454 172 55.9065 172 55.9683V72.7083C172 72.7621 172.011 72.8154 172.031 72.8652C172.052 72.9149 172.082 72.9601 172.12 72.9982C172.158 73.0362 172.203 73.0664 172.253 73.087C172.303 73.1076 172.356 73.1183 172.41 73.1183H198.34C198.457 73.1183 198.569 73.1646 198.651 73.2471C198.734 73.3297 198.78 73.4416 198.78 73.5583V138.448C198.78 138.645 198.858 138.833 198.997 138.972C199.136 139.11 199.324 139.188 199.52 139.188C201.393 139.195 204.44 139.195 208.66 139.188C212.88 139.188 215.93 139.182 217.81 139.168C218.005 139.166 218.19 139.086 218.327 138.948C218.463 138.81 218.54 138.623 218.54 138.428L218.42 73.5383C218.42 73.4216 218.466 73.3096 218.549 73.2271C218.631 73.1446 218.743 73.0983 218.86 73.0983L244.79 73.0483C244.899 73.0483 245.003 73.0051 245.08 72.9282C245.157 72.8513 245.2 72.747 245.2 72.6382L245.17 55.8983C245.17 55.8365 245.158 55.7754 245.135 55.7184C245.112 55.6614 245.078 55.6096 245.035 55.5659C244.993 55.5223 244.942 55.4877 244.886 55.4641C244.83 55.4404 244.77 55.4283 244.71 55.4283C243.443 55.4216 231.4 55.4282 208.58 55.4482Z" fill="#32AB27"/>
<path d="M279.901 55.9775C279.901 55.8343 279.844 55.6969 279.742 55.5956C279.641 55.4944 279.504 55.4375 279.361 55.4375H260.601C260.457 55.4375 260.32 55.4944 260.219 55.5956C260.117 55.6969 260.061 55.8343 260.061 55.9775V138.677C260.061 138.821 260.117 138.958 260.219 139.059C260.32 139.161 260.457 139.217 260.601 139.217H279.361C279.504 139.217 279.641 139.161 279.742 139.059C279.844 138.958 279.901 138.821 279.901 138.677V55.9775Z" fill="#32AB27"/>
<path d="M388.78 55.4766C388.661 55.4766 388.546 55.5239 388.462 55.6083C388.377 55.6927 388.33 55.8072 388.33 55.9266V138.727C388.33 138.846 388.377 138.96 388.462 139.045C388.546 139.129 388.661 139.177 388.78 139.177H450.06C450.119 139.177 450.178 139.165 450.232 139.142C450.287 139.12 450.336 139.087 450.378 139.045C450.42 139.003 450.453 138.953 450.476 138.899C450.498 138.844 450.51 138.786 450.51 138.727V122.027C450.51 121.967 450.498 121.909 450.476 121.854C450.453 121.8 450.42 121.75 450.378 121.708C450.336 121.667 450.287 121.633 450.232 121.611C450.178 121.588 450.119 121.577 450.06 121.577H408.6C408.481 121.577 408.366 121.529 408.282 121.445C408.197 121.36 408.15 121.246 408.15 121.127V55.9266C408.15 55.8072 408.103 55.6927 408.018 55.6083C407.934 55.5239 407.819 55.4766 407.7 55.4766H388.78Z" fill="#32AB27"/>
<path d="M669.159 55.4578C646.359 55.5112 634.329 55.5445 633.069 55.5579C633.009 55.5579 632.949 55.57 632.893 55.5936C632.837 55.6173 632.787 55.6519 632.744 55.6955C632.701 55.7392 632.668 55.7909 632.644 55.848C632.621 55.905 632.609 55.9661 632.609 56.0278L632.629 72.7578C632.629 72.8666 632.673 72.9709 632.749 73.0477C632.826 73.1246 632.931 73.1679 633.039 73.1679L658.949 73.1279C659.066 73.1279 659.178 73.1742 659.26 73.2567C659.343 73.3392 659.389 73.4512 659.389 73.5679L659.479 138.408C659.478 138.505 659.496 138.601 659.533 138.69C659.569 138.78 659.624 138.862 659.693 138.93C659.761 138.999 659.843 139.054 659.934 139.091C660.024 139.129 660.121 139.148 660.219 139.148C662.093 139.155 665.139 139.151 669.359 139.138C673.573 139.131 676.619 139.121 678.499 139.108C678.597 139.107 678.693 139.086 678.782 139.048C678.871 139.011 678.952 138.956 679.02 138.887C679.088 138.818 679.141 138.737 679.177 138.648C679.213 138.559 679.231 138.464 679.229 138.368L679.019 73.5278C679.019 73.4111 679.066 73.2993 679.148 73.2167C679.231 73.1342 679.343 73.0878 679.459 73.0878L705.369 72.9979C705.478 72.9979 705.582 72.9546 705.659 72.8778C705.736 72.8009 705.779 72.6966 705.779 72.5878L705.719 55.8579C705.719 55.7332 705.671 55.6137 705.585 55.5255C705.498 55.4374 705.381 55.3878 705.259 55.3878C703.999 55.3812 691.966 55.4045 669.159 55.4578Z" fill="#32AB27"/>
<path d="M621.071 63.9167C621.174 63.9921 621.246 64.1028 621.272 64.2269C621.298 64.3511 621.276 64.4795 621.211 64.5867L612.091 79.1467C612.072 79.1759 612.048 79.2012 612.02 79.2207C611.992 79.2403 611.96 79.2537 611.926 79.2603C611.892 79.2668 611.857 79.2664 611.824 79.2589C611.79 79.2514 611.758 79.237 611.731 79.2167C603.891 73.3034 595.144 70.6967 585.491 71.3967C579.777 71.81 577.307 74.7367 578.081 80.1767C578.531 83.3567 582.951 85.2067 585.681 85.9167C598.981 89.3667 620.671 92.1867 623.791 108.877C626.301 122.247 619.871 134.227 606.631 138.357C589.131 143.817 569.141 138.677 554.771 127.867C554.701 127.816 554.642 127.751 554.597 127.676C554.553 127.601 554.524 127.519 554.513 127.432C554.502 127.346 554.508 127.259 554.532 127.175C554.556 127.092 554.596 127.014 554.651 126.947L565.461 113.387C565.507 113.329 565.564 113.282 565.629 113.249C565.695 113.215 565.766 113.195 565.84 113.19C565.913 113.185 565.987 113.196 566.056 113.221C566.125 113.246 566.188 113.286 566.241 113.337C572.761 119.537 582.021 122.617 590.811 123.307C596.041 123.717 603.401 123.257 604.661 117.167C605.991 110.737 598.521 108.427 593.541 107.077C577.831 102.797 556.931 100.977 558.331 78.8067C559.381 62.1867 572.891 54.5967 588.371 54.0367C600.371 53.61 611.271 56.9034 621.071 63.9167Z" fill="#32AB27"/>
<path d="M530.251 139.21L522.461 121.45C522.422 121.359 522.358 121.282 522.277 121.227C522.195 121.172 522.099 121.142 522.001 121.14H487.071C486.972 121.142 486.877 121.172 486.795 121.227C486.713 121.282 486.649 121.359 486.611 121.45L478.831 139.19C478.792 139.281 478.728 139.358 478.647 139.413C478.565 139.468 478.469 139.498 478.371 139.5H459.511C459.427 139.5 459.343 139.479 459.269 139.44C459.195 139.4 459.131 139.342 459.085 139.272C459.038 139.201 459.01 139.12 459.002 139.036C458.994 138.952 459.008 138.868 459.041 138.79L495.571 55.3101C495.609 55.2195 495.673 55.142 495.755 55.087C495.837 55.032 495.932 55.0018 496.031 55H513.801C513.899 55.0018 513.995 55.032 514.077 55.087C514.158 55.142 514.222 55.2195 514.261 55.3101L550.851 138.81C550.884 138.888 550.897 138.972 550.89 139.056C550.882 139.14 550.854 139.221 550.807 139.292C550.76 139.362 550.697 139.42 550.623 139.459C550.548 139.499 550.465 139.52 550.381 139.52H530.711C530.612 139.518 530.517 139.488 530.435 139.433C530.353 139.378 530.289 139.301 530.251 139.21ZM493.711 103.97C493.691 104.016 493.683 104.066 493.687 104.117C493.691 104.167 493.708 104.215 493.736 104.256C493.764 104.298 493.802 104.332 493.846 104.356C493.891 104.379 493.941 104.391 493.991 104.39L515.201 104.27C515.25 104.27 515.298 104.258 515.341 104.236C515.385 104.213 515.422 104.18 515.449 104.139C515.477 104.099 515.494 104.052 515.5 104.004C515.505 103.955 515.499 103.906 515.481 103.86L504.741 78.73C504.717 78.6769 504.677 78.632 504.628 78.6009C504.578 78.5698 504.521 78.5538 504.463 78.5549C504.404 78.5559 504.347 78.574 504.299 78.6069C504.251 78.6398 504.213 78.6861 504.191 78.7401L493.711 103.97Z" fill="#32AB27"/>
<path d="M208.66 139.184C204.44 139.191 201.393 139.191 199.52 139.184C199.324 139.184 199.136 139.106 198.997 138.968C198.858 138.829 198.78 138.641 198.78 138.444V73.5544C198.78 73.4377 198.734 73.3257 198.651 73.2432C198.569 73.1607 198.457 73.1144 198.34 73.1144H172.41C172.356 73.1144 172.303 73.1037 172.253 73.0831C172.203 73.0625 172.158 73.0323 172.12 72.9943C172.082 72.9562 172.052 72.911 172.031 72.8613C172.011 72.8115 172 72.7582 172 72.7043V55.9644C172 55.9026 172.012 55.8415 172.035 55.7845C172.058 55.7275 172.092 55.6757 172.135 55.632C172.177 55.5884 172.228 55.5537 172.284 55.5301C172.34 55.5065 172.4 55.4944 172.46 55.4944C173.727 55.4811 185.767 55.4643 208.58 55.4443C231.4 55.4243 243.443 55.4177 244.71 55.4244C244.77 55.4244 244.83 55.4365 244.886 55.4601C244.942 55.4838 244.993 55.5184 245.035 55.562C245.078 55.6057 245.112 55.6575 245.135 55.7145C245.158 55.7715 245.17 55.8326 245.17 55.8944L245.2 72.6343C245.2 72.7431 245.157 72.8474 245.08 72.9243C245.003 73.0011 244.899 73.0444 244.79 73.0444L218.86 73.0944C218.743 73.0944 218.631 73.1407 218.549 73.2232C218.466 73.3057 218.42 73.4177 218.42 73.5344L218.54 138.424C218.54 138.619 218.463 138.806 218.327 138.944C218.19 139.083 218.005 139.162 217.81 139.164C215.93 139.178 212.88 139.184 208.66 139.184Z" fill="#32AB27"/>
<path d="M279.361 55.4375H260.601C260.302 55.4375 260.061 55.6792 260.061 55.9775V138.677C260.061 138.976 260.302 139.217 260.601 139.217H279.361C279.659 139.217 279.901 138.976 279.901 138.677V55.9775C279.901 55.6792 279.659 55.4375 279.361 55.4375Z" fill="#32AB27"/>
<path d="M301.51 55.0674C316.983 54.9648 329.62 54.9784 339.42 55.1084C358.69 55.3649 372.43 67.4406 370.41 88.2363C368.56 107.319 354.33 114.972 337.43 115.598C334.023 115.721 328.7 115.718 321.46 115.588C321.391 115.587 321.322 115.599 321.258 115.626C321.194 115.653 321.135 115.693 321.086 115.743C321.037 115.794 320.997 115.854 320.971 115.921C320.944 115.988 320.93 116.06 320.93 116.132V140.292C320.93 140.48 320.857 140.66 320.728 140.793C320.598 140.925 320.423 141 320.24 141H301.73C301.635 141 301.539 140.981 301.45 140.943C301.362 140.906 301.282 140.85 301.214 140.78C301.146 140.711 301.092 140.629 301.056 140.538C301.019 140.447 301 140.349 301 140.251V55.5908C301 55.4521 301.054 55.3188 301.149 55.2207C301.245 55.1227 301.375 55.0674 301.51 55.0674ZM321.71 72.5703C321.484 72.573 321.268 72.6669 321.108 72.832C320.949 72.9971 320.86 73.22 320.86 73.4521L321.02 97.2539C321.02 97.3704 321.042 97.4862 321.086 97.5938C321.13 97.7015 321.194 97.7998 321.275 97.8818C321.356 97.9638 321.452 98.0285 321.558 98.0723C321.663 98.116 321.776 98.138 321.89 98.1367L338.08 98.0137C341.386 97.9896 344.548 96.7559 346.871 94.584C349.194 92.4121 350.488 89.4793 350.47 86.4307L350.45 83.8652C350.441 82.3543 350.108 80.8604 349.473 79.4688C348.837 78.077 347.91 76.8143 346.744 75.7539C345.579 74.6937 344.198 73.8555 342.681 73.2881C341.163 72.7207 339.539 72.4353 337.9 72.4473L321.71 72.5703Z" fill="#32AB27"/>
<path d="M388.78 55.4766H407.7C407.819 55.4766 407.934 55.5239 408.018 55.6083C408.103 55.6927 408.15 55.8072 408.15 55.9266V121.127C408.15 121.246 408.197 121.36 408.282 121.445C408.366 121.529 408.481 121.577 408.6 121.577H450.06C450.119 121.577 450.178 121.588 450.232 121.611C450.287 121.633 450.336 121.667 450.378 121.708C450.42 121.75 450.453 121.8 450.476 121.854C450.498 121.909 450.51 121.967 450.51 122.027V138.727C450.51 138.786 450.498 138.844 450.476 138.899C450.453 138.953 450.42 139.003 450.378 139.045C450.336 139.087 450.287 139.12 450.232 139.142C450.178 139.165 450.119 139.177 450.06 139.177H388.78C388.661 139.177 388.546 139.129 388.462 139.045C388.377 138.96 388.33 138.846 388.33 138.727V55.9266C388.33 55.8072 388.377 55.6927 388.462 55.6083C388.546 55.5239 388.661 55.4766 388.78 55.4766Z" fill="#32AB27"/>
<path d="M669.161 55.4578C691.968 55.4045 704.001 55.3812 705.261 55.3878C705.383 55.3878 705.5 55.4374 705.587 55.5255C705.673 55.6137 705.721 55.7332 705.721 55.8579L705.781 72.5878C705.781 72.6966 705.738 72.8009 705.661 72.8778C705.584 72.9546 705.48 72.9979 705.371 72.9979L679.461 73.0878C679.345 73.0878 679.233 73.1342 679.15 73.2167C679.068 73.2993 679.021 73.4111 679.021 73.5278L679.231 138.368C679.233 138.464 679.215 138.559 679.179 138.648C679.143 138.737 679.089 138.818 679.022 138.887C678.954 138.956 678.873 139.011 678.784 139.048C678.694 139.086 678.599 139.107 678.501 139.108C676.621 139.121 673.575 139.131 669.361 139.138C665.141 139.151 662.095 139.155 660.221 139.148C660.123 139.148 660.026 139.129 659.936 139.091C659.845 139.054 659.763 138.999 659.694 138.93C659.626 138.862 659.571 138.78 659.535 138.69C659.498 138.601 659.48 138.505 659.481 138.408L659.391 73.5679C659.391 73.4512 659.345 73.3392 659.262 73.2567C659.18 73.1742 659.068 73.1279 658.951 73.1279L633.041 73.1679C632.933 73.1679 632.828 73.1246 632.751 73.0477C632.675 72.9709 632.631 72.8666 632.631 72.7578L632.611 56.0278C632.611 55.9661 632.623 55.905 632.646 55.848C632.669 55.7909 632.703 55.7392 632.746 55.6955C632.789 55.6519 632.839 55.6173 632.895 55.5936C632.951 55.57 633.011 55.5579 633.071 55.5579C634.331 55.5445 646.361 55.5112 669.161 55.4578Z" fill="#32AB27"/>
</svg>
