<svg width="534" height="87" viewBox="0 0 534 87" fill="none" xmlns="http://www.w3.org/2000/svg">
<path d="M449.071 9.91671C439.271 2.90337 428.371 -0.389964 416.371 0.0367025C400.891 0.596702 387.381 8.18672 386.331 24.8067C384.931 46.9767 405.831 48.7967 421.541 53.0767C426.521 54.4267 433.991 56.7367 432.661 63.1667C431.401 69.2567 424.041 69.7167 418.811 69.3067C410.021 68.6167 400.761 65.5367 394.241 59.3367C394.188 59.2858 394.125 59.2465 394.056 59.2212C393.987 59.196 393.913 59.1854 393.84 59.1901C393.766 59.1948 393.695 59.2147 393.629 59.2486C393.564 59.2824 393.507 59.3294 393.461 59.3867L382.651 72.9467C382.596 73.0141 382.556 73.0919 382.532 73.1754C382.508 73.2589 382.502 73.3464 382.513 73.4325C382.524 73.5185 382.553 73.6014 382.597 73.676C382.642 73.7507 382.701 73.8156 382.771 73.8667C397.141 84.6767 417.131 89.8167 434.631 84.3567C447.871 80.2267 454.301 68.2467 451.791 54.8767C448.671 38.1867 426.981 35.3667 413.681 31.9167C410.951 31.2067 406.531 29.3567 406.081 26.1767C405.307 20.7367 407.777 17.81 413.491 17.3967C423.144 16.6967 431.891 19.3034 439.731 25.2167C439.758 25.237 439.79 25.2514 439.824 25.2589C439.857 25.2664 439.892 25.2668 439.926 25.2603C439.96 25.2537 439.992 25.2403 440.02 25.2207C440.048 25.2012 440.072 25.1759 440.091 25.1467L449.211 10.5867C449.276 10.4795 449.298 10.3511 449.272 10.2269C449.246 10.1028 449.174 9.99209 449.071 9.91671Z" fill="black"/>
<path d="M36.58 1.44825C13.7667 1.46825 1.72666 1.48496 0.459991 1.4983C0.399578 1.49829 0.339765 1.51039 0.283951 1.534C0.228137 1.55762 0.17742 1.59228 0.134705 1.63593C0.0919887 1.67957 0.0581015 1.73137 0.0349884 1.7884C0.0118753 1.84542 -9.08223e-06 1.90654 5.20762e-09 1.96827V18.7083C5.20757e-09 18.7621 0.0105998 18.8154 0.0312042 18.8652C0.0518087 18.9149 0.0820147 18.9601 0.120087 18.9982C0.158159 19.0362 0.203354 19.0664 0.253098 19.087C0.302841 19.1076 0.356162 19.1183 0.410004 19.1183H26.34C26.4567 19.1183 26.5686 19.1646 26.6511 19.2471C26.7336 19.3297 26.78 19.4416 26.78 19.5583V84.4482C26.78 84.6445 26.858 84.8328 26.9967 84.9716C27.1355 85.1103 27.3237 85.1883 27.52 85.1883C29.3933 85.195 32.44 85.195 36.66 85.1883C40.88 85.1883 43.93 85.1816 45.81 85.1683C46.0045 85.1657 46.1902 85.0865 46.3268 84.948C46.4634 84.8095 46.54 84.6228 46.54 84.4283L46.42 19.5383C46.42 19.4216 46.4663 19.3096 46.5489 19.2271C46.6314 19.1446 46.7433 19.0983 46.86 19.0983L72.79 19.0483C72.8987 19.0483 73.003 19.0051 73.0799 18.9282C73.1568 18.8513 73.2 18.747 73.2 18.6382L73.17 1.89826C73.17 1.83653 73.1581 1.77541 73.135 1.71839C73.1119 1.66136 73.078 1.60957 73.0353 1.56592C72.9926 1.52228 72.9419 1.48767 72.886 1.46405C72.8302 1.44044 72.7704 1.42828 72.71 1.42829C71.4433 1.42162 59.4 1.42825 36.58 1.44825Z" fill="black"/>
<path d="M107.901 1.97748C107.901 1.83426 107.844 1.69691 107.742 1.59564C107.641 1.49437 107.504 1.4375 107.361 1.4375H88.6006C88.4573 1.4375 88.32 1.49437 88.2187 1.59564C88.1174 1.69691 88.0605 1.83426 88.0605 1.97748V84.6775C88.0605 84.8207 88.1174 84.9581 88.2187 85.0593C88.32 85.1606 88.4573 85.2175 88.6006 85.2175H107.361C107.504 85.2175 107.641 85.1606 107.742 85.0593C107.844 84.9581 107.901 84.8207 107.901 84.6775V1.97748Z" fill="black"/>
<path d="M216.78 1.47656C216.661 1.47656 216.546 1.52395 216.462 1.60834C216.377 1.69273 216.33 1.80723 216.33 1.92657V84.7266C216.33 84.8459 216.377 84.9603 216.462 85.0447C216.546 85.1291 216.661 85.1766 216.78 85.1766H278.06C278.119 85.1766 278.178 85.1649 278.232 85.1423C278.287 85.1197 278.336 85.0865 278.378 85.0447C278.42 85.003 278.453 84.9533 278.476 84.8987C278.498 84.8441 278.51 84.7857 278.51 84.7266V68.0266C278.51 67.9675 278.498 67.909 278.476 67.8544C278.453 67.7998 278.42 67.7502 278.378 67.7084C278.336 67.6666 278.287 67.6335 278.232 67.6108C278.178 67.5882 278.119 67.5765 278.06 67.5765H236.6C236.481 67.5765 236.366 67.5292 236.282 67.4448C236.197 67.3604 236.15 67.2459 236.15 67.1266V1.92657C236.15 1.80723 236.103 1.69273 236.018 1.60834C235.934 1.52395 235.819 1.47656 235.7 1.47656H216.78Z" fill="black"/>
<path d="M497.159 1.45784C474.359 1.51117 462.329 1.54454 461.069 1.55787C461.009 1.55786 460.949 1.57002 460.893 1.59364C460.837 1.61726 460.787 1.65186 460.744 1.69551C460.701 1.73915 460.668 1.79095 460.644 1.84797C460.621 1.905 460.609 1.96612 460.609 2.02784L460.629 18.7578C460.629 18.8666 460.673 18.9709 460.749 19.0477C460.826 19.1246 460.931 19.1679 461.039 19.1679L486.949 19.1279C487.066 19.1279 487.178 19.1742 487.26 19.2567C487.343 19.3392 487.389 19.4512 487.389 19.5679L487.479 84.4079C487.478 84.5046 487.496 84.6005 487.533 84.6903C487.569 84.78 487.624 84.8616 487.693 84.9305C487.761 84.9993 487.843 85.054 487.934 85.0913C488.024 85.1286 488.121 85.1478 488.219 85.1478C490.093 85.1545 493.139 85.1512 497.359 85.1378C501.573 85.1312 504.619 85.1212 506.499 85.1079C506.597 85.1066 506.693 85.0864 506.782 85.0485C506.871 85.0106 506.952 84.9557 507.02 84.887C507.088 84.8183 507.141 84.737 507.177 84.648C507.213 84.5589 507.231 84.4637 507.229 84.3679L507.019 19.5278C507.019 19.4111 507.066 19.2993 507.148 19.2167C507.231 19.1342 507.343 19.0878 507.459 19.0878L533.369 18.9979C533.478 18.9979 533.582 18.9546 533.659 18.8778C533.736 18.8009 533.779 18.6966 533.779 18.5878L533.719 1.85786C533.719 1.73321 533.671 1.61367 533.585 1.52552C533.498 1.43738 533.381 1.38783 533.259 1.38783C531.999 1.38116 519.966 1.4045 497.159 1.45784Z" fill="black"/>
<path d="M449.071 9.91671C449.174 9.99209 449.246 10.1028 449.272 10.2269C449.298 10.3511 449.276 10.4795 449.211 10.5867L440.091 25.1467C440.072 25.1759 440.048 25.2012 440.02 25.2207C439.992 25.2403 439.96 25.2537 439.926 25.2603C439.892 25.2668 439.857 25.2664 439.824 25.2589C439.79 25.2514 439.758 25.237 439.731 25.2167C431.891 19.3034 423.144 16.6967 413.491 17.3967C407.777 17.81 405.307 20.7367 406.081 26.1767C406.531 29.3567 410.951 31.2067 413.681 31.9167C426.981 35.3667 448.671 38.1867 451.791 54.8767C454.301 68.2467 447.871 80.2267 434.631 84.3567C417.131 89.8167 397.141 84.6767 382.771 73.8667C382.701 73.8156 382.642 73.7507 382.597 73.676C382.553 73.6014 382.524 73.5185 382.513 73.4325C382.502 73.3464 382.508 73.2589 382.532 73.1754C382.556 73.0919 382.596 73.0141 382.651 72.9467L393.461 59.3867C393.507 59.3294 393.564 59.2824 393.629 59.2486C393.695 59.2147 393.766 59.1948 393.84 59.1901C393.913 59.1854 393.987 59.196 394.056 59.2212C394.125 59.2465 394.188 59.2858 394.241 59.3367C400.761 65.5367 410.021 68.6167 418.811 69.3067C424.041 69.7167 431.401 69.2567 432.661 63.1667C433.991 56.7367 426.521 54.4267 421.541 53.0767C405.831 48.7967 384.931 46.9767 386.331 24.8067C387.381 8.18672 400.891 0.596702 416.371 0.0367025C428.371 -0.389964 439.271 2.90337 449.071 9.91671Z" fill="black"/>
<path d="M358.251 85.21L350.461 67.45C350.422 67.3595 350.358 67.2821 350.277 67.2271C350.195 67.172 350.099 67.1418 350.001 67.14H315.071C314.972 67.1418 314.877 67.172 314.795 67.2271C314.713 67.2821 314.649 67.3595 314.611 67.45L306.831 85.19C306.792 85.2806 306.728 85.358 306.647 85.413C306.565 85.468 306.469 85.4982 306.371 85.5H287.511C287.427 85.5001 287.343 85.4794 287.269 85.4395C287.195 85.3996 287.131 85.3419 287.085 85.2715C287.038 85.2012 287.01 85.1204 287.002 85.0363C286.994 84.9523 287.008 84.8677 287.041 84.79L323.571 1.31006C323.609 1.21951 323.673 1.14204 323.755 1.08704C323.837 1.03203 323.932 1.00177 324.031 1H341.801C341.899 1.00177 341.995 1.03203 342.077 1.08704C342.158 1.14204 342.222 1.21951 342.261 1.31006L378.851 84.8101C378.884 84.8877 378.897 84.9723 378.89 85.0563C378.882 85.1404 378.854 85.2212 378.807 85.2916C378.76 85.3619 378.697 85.4196 378.623 85.4595C378.548 85.4993 378.465 85.5202 378.381 85.52H358.711C358.612 85.5182 358.517 85.4881 358.435 85.433C358.353 85.378 358.289 85.3006 358.251 85.21ZM321.711 49.97C321.691 50.0161 321.683 50.0665 321.687 50.1165C321.691 50.1666 321.708 50.2147 321.736 50.2565C321.764 50.2983 321.802 50.3324 321.846 50.3558C321.891 50.3791 321.941 50.3909 321.991 50.39L343.201 50.27C343.25 50.2702 343.298 50.2583 343.341 50.2355C343.385 50.2127 343.422 50.1797 343.449 50.1392C343.477 50.0988 343.494 50.0522 343.5 50.0035C343.505 49.9549 343.499 49.9056 343.481 49.86L332.741 24.73C332.717 24.6769 332.677 24.632 332.628 24.6009C332.578 24.5698 332.521 24.5538 332.463 24.5549C332.404 24.5559 332.347 24.574 332.299 24.6069C332.251 24.6398 332.213 24.6861 332.191 24.7401L321.711 49.97Z" fill="black"/>
<path d="M36.66 85.1844C32.44 85.1911 29.3933 85.1911 27.52 85.1844C27.3237 85.1844 27.1355 85.1064 26.9967 84.9677C26.858 84.8289 26.78 84.6406 26.78 84.4443V19.5544C26.78 19.4377 26.7336 19.3257 26.6511 19.2432C26.5686 19.1607 26.4567 19.1144 26.34 19.1144H0.410004C0.356162 19.1144 0.302841 19.1037 0.253098 19.0831C0.203354 19.0625 0.158159 19.0323 0.120087 18.9943C0.0820147 18.9562 0.0518087 18.911 0.0312042 18.8613C0.0105998 18.8115 5.20757e-09 18.7582 5.2076e-09 18.7043V1.96436C-9.08223e-06 1.90263 0.0118753 1.84152 0.0349884 1.78449C0.0581015 1.72746 0.0919887 1.67567 0.134705 1.63202C0.17742 1.58838 0.228137 1.55371 0.283951 1.53009C0.339765 1.50648 0.399578 1.49438 0.459991 1.49439C1.72666 1.48106 13.7667 1.46434 36.58 1.44434C59.4 1.42434 71.4433 1.41771 72.71 1.42438C72.7704 1.42438 72.8302 1.43653 72.886 1.46015C72.9419 1.48377 72.9926 1.51837 73.0353 1.56202C73.078 1.60566 73.1119 1.65746 73.135 1.71448C73.1581 1.77151 73.17 1.83263 73.17 1.89435L73.2 18.6343C73.2 18.7431 73.1568 18.8474 73.0799 18.9243C73.003 19.0011 72.8987 19.0444 72.79 19.0444L46.86 19.0944C46.7433 19.0944 46.6314 19.1407 46.5489 19.2232C46.4663 19.3057 46.42 19.4177 46.42 19.5344L46.54 84.4244C46.54 84.6189 46.4634 84.8056 46.3268 84.9441C46.1902 85.0826 46.0045 85.1617 45.81 85.1644C43.93 85.1777 40.88 85.1844 36.66 85.1844Z" fill="black"/>
<path d="M107.361 1.4375H88.6006C88.3023 1.4375 88.0605 1.67924 88.0605 1.97748V84.6775C88.0605 84.9757 88.3023 85.2175 88.6006 85.2175H107.361C107.659 85.2175 107.901 84.9757 107.901 84.6775V1.97748C107.901 1.67924 107.659 1.4375 107.361 1.4375Z" fill="black"/>
<path d="M129.51 1.06738C144.983 0.96479 157.62 0.978447 167.42 1.1084C186.69 1.36488 200.43 13.4406 198.41 34.2363C196.56 53.3187 182.33 60.9718 165.43 61.5977C162.023 61.7208 156.7 61.7178 149.46 61.5879C149.391 61.5865 149.322 61.5993 149.258 61.626C149.194 61.6527 149.135 61.6926 149.086 61.7432C149.037 61.7938 148.997 61.8543 148.971 61.9209C148.944 61.9875 148.93 62.0596 148.93 62.1318V86.292C148.93 86.4797 148.857 86.6602 148.728 86.793C148.598 86.9255 148.423 86.9999 148.24 87H129.73C129.635 87 129.539 86.981 129.45 86.9434C129.362 86.9057 129.282 86.8497 129.214 86.7803C129.146 86.7108 129.092 86.6287 129.056 86.5381C129.019 86.4472 129 86.3493 129 86.251V1.59082C129 1.4521 129.054 1.3188 129.149 1.2207C129.245 1.12275 129.375 1.06744 129.51 1.06738ZM149.71 18.5703C149.484 18.573 149.268 18.6669 149.108 18.832C148.949 18.9971 148.86 19.22 148.86 19.4521L149.02 43.2539C149.02 43.3706 149.042 43.487 149.086 43.5947C149.13 43.7024 149.195 43.7998 149.275 43.8818C149.356 43.9638 149.452 44.0285 149.558 44.0723C149.663 44.116 149.776 44.138 149.89 44.1367L166.08 44.0137C169.386 43.9896 172.548 42.7559 174.871 40.584C177.194 38.4121 178.488 35.4793 178.47 32.4307L178.45 29.8662C178.441 28.3552 178.108 26.8606 177.473 25.4688C176.837 24.077 175.91 22.8143 174.744 21.7539C173.579 20.6937 172.198 19.8555 170.681 19.2881C169.163 18.7207 167.539 18.4353 165.9 18.4473L149.71 18.5703Z" fill="black"/>
<path d="M216.78 1.47656H235.7C235.819 1.47656 235.934 1.52395 236.018 1.60834C236.103 1.69273 236.15 1.80723 236.15 1.92657V67.1266C236.15 67.2459 236.197 67.3604 236.282 67.4448C236.366 67.5292 236.481 67.5765 236.6 67.5765H278.06C278.119 67.5765 278.178 67.5882 278.232 67.6108C278.287 67.6335 278.336 67.6666 278.378 67.7084C278.42 67.7502 278.453 67.7998 278.476 67.8544C278.498 67.909 278.51 67.9675 278.51 68.0266V84.7266C278.51 84.7857 278.498 84.8441 278.476 84.8987C278.453 84.9533 278.42 85.003 278.378 85.0447C278.336 85.0865 278.287 85.1197 278.232 85.1423C278.178 85.1649 278.119 85.1766 278.06 85.1766H216.78C216.661 85.1766 216.546 85.1291 216.462 85.0447C216.377 84.9603 216.33 84.8459 216.33 84.7266V1.92657C216.33 1.80723 216.377 1.69273 216.462 1.60834C216.546 1.52395 216.661 1.47656 216.78 1.47656Z" fill="black"/>
<path d="M497.161 1.45784C519.968 1.4045 532.001 1.38116 533.261 1.38783C533.383 1.38783 533.5 1.43738 533.587 1.52552C533.673 1.61367 533.721 1.73321 533.721 1.85786L533.781 18.5878C533.781 18.6966 533.738 18.8009 533.661 18.8778C533.584 18.9546 533.48 18.9979 533.371 18.9979L507.461 19.0878C507.345 19.0878 507.233 19.1342 507.15 19.2167C507.068 19.2993 507.021 19.4111 507.021 19.5278L507.231 84.3679C507.233 84.4637 507.215 84.5589 507.179 84.648C507.143 84.737 507.089 84.8183 507.022 84.887C506.954 84.9557 506.873 85.0106 506.784 85.0485C506.694 85.0864 506.599 85.1066 506.501 85.1079C504.621 85.1212 501.575 85.1312 497.361 85.1378C493.141 85.1512 490.095 85.1545 488.221 85.1478C488.123 85.1478 488.026 85.1286 487.936 85.0913C487.845 85.054 487.763 84.9993 487.694 84.9305C487.626 84.8616 487.571 84.78 487.535 84.6903C487.498 84.6005 487.48 84.5046 487.481 84.4079L487.391 19.5679C487.391 19.4512 487.345 19.3392 487.262 19.2567C487.18 19.1742 487.068 19.1279 486.951 19.1279L461.041 19.1679C460.933 19.1679 460.828 19.1246 460.751 19.0477C460.675 18.9709 460.631 18.8666 460.631 18.7578L460.611 2.02784C460.611 1.96612 460.623 1.905 460.646 1.84797C460.669 1.79095 460.703 1.73915 460.746 1.69551C460.789 1.65186 460.839 1.61726 460.895 1.59364C460.951 1.57002 461.011 1.55786 461.071 1.55787C462.331 1.54454 474.361 1.51117 497.161 1.45784Z" fill="black"/>
</svg>
