<svg width="102" height="106" viewBox="0 0 102 106" fill="none" xmlns="http://www.w3.org/2000/svg">
<path d="M43.9628 22.5919C48.579 28.2108 52.2424 34.769 54.1343 41.9823C54.1415 42.0088 54.1568 42.0324 54.1782 42.0497C54.1995 42.067 54.2258 42.0771 54.2532 42.0786C54.2806 42.08 54.3078 42.0728 54.3309 42.0579C54.3539 42.0431 54.3717 42.0213 54.3817 41.9957C55.3288 39.5779 56.0407 37.374 56.5176 35.384C57.2039 32.525 57.448 29.3908 57.2496 25.9813C56.8886 19.8009 53.643 13.6806 49.194 9.40873C46.3617 6.69232 43.6063 4.26782 40.9278 2.13524C40.7361 1.98148 40.4085 1.62495 39.945 1.06562C39.9248 1.04196 39.899 1.02371 39.87 1.01252C39.841 1.00134 39.8096 0.997556 39.7787 1.00154C39.7479 1.00552 39.7185 1.01713 39.6933 1.03532C39.668 1.05351 39.6477 1.07772 39.6342 1.10573C37.9941 4.51963 36.6537 7.97141 35.613 11.4611C33.7512 17.7084 33.4905 23.7384 35.944 29.8654C38.7885 36.9684 45.2731 41.9589 51.7979 45.3951C51.8168 45.4053 51.8381 45.4102 51.8595 45.4094C51.881 45.4086 51.9018 45.402 51.9199 45.3904C51.938 45.3788 51.9526 45.3626 51.9623 45.3435C51.972 45.3243 51.9764 45.3029 51.975 45.2815C51.8681 43.14 51.5004 40.9884 50.872 38.8269C49.6352 34.5584 47.8536 29.9824 45.8648 25.8677C45.5617 25.2437 45.2531 24.7078 44.9389 24.2599C44.306 23.3596 43.9561 22.8181 43.8893 22.6354C43.8858 22.6259 43.8858 22.6154 43.8892 22.6059C43.8927 22.5963 43.8993 22.5883 43.908 22.5831C43.9168 22.578 43.927 22.576 43.937 22.5776C43.947 22.5792 43.9562 22.5843 43.9628 22.5919Z" stroke="#A0D7A0" stroke-width="2"/>
<path d="M73.4987 24.8621C71.404 25.5485 69.7494 26.3719 68.5349 27.3323C68.3544 27.4727 67.7338 28.0409 66.6731 29.037C64.8614 30.7351 63.5845 32.9078 62.8859 35.2509C62.8795 35.2732 62.8779 35.2965 62.8813 35.3195C62.8848 35.3424 62.8931 35.3643 62.9058 35.3836C62.9185 35.403 62.9353 35.4194 62.9549 35.4317C62.9746 35.444 62.9967 35.4519 63.0196 35.4548C64.4904 35.6331 65.9377 35.7601 67.3617 35.8359C72.5449 36.1055 76.8457 34.2559 80.2641 30.2872C80.5315 29.9752 81.7025 28.6426 83.7771 26.2894C85.1565 24.7229 86.7465 23.5685 88.547 22.8265C88.5613 22.82 88.5734 22.8096 88.5821 22.7964C88.5907 22.7833 88.5955 22.768 88.5958 22.7523C88.5962 22.7366 88.5921 22.7211 88.5841 22.7077C88.576 22.6942 88.5643 22.6832 88.5503 22.6761C83.7805 20.3329 77.8708 19.2299 72.7566 20.6304C69.98 21.3903 67.7817 22.5212 66.1617 24.0231C63.8375 26.1758 62.5082 28.9044 62.174 32.2092C62.1728 32.2306 62.1791 32.2518 62.1918 32.2692C62.2045 32.2866 62.2227 32.2991 62.2435 32.3045C62.2643 32.31 62.2864 32.3082 62.306 32.2993C62.3255 32.2905 62.3415 32.2752 62.3511 32.2559C62.6854 31.4916 63.111 30.8342 63.628 30.2838C66.1851 27.5663 69.7082 25.4638 73.4686 24.7518C73.4832 24.7478 73.4988 24.7498 73.512 24.7573C73.5251 24.7649 73.5348 24.7773 73.5388 24.7919C73.5428 24.8066 73.5408 24.8222 73.5333 24.8353C73.5257 24.8485 73.5133 24.8581 73.4987 24.8621Z" stroke="#C3E39E" stroke-width="2"/>
<path d="M55.2186 48.066C55.0626 47.9323 54.8788 47.9311 54.6671 48.0626C54.5749 48.1205 54.5088 48.2129 54.4833 48.32C53.8771 50.7824 53.5774 53.091 53.5841 55.2459C53.6331 68.7566 53.671 85.2167 53.6978 104.626C53.6978 104.766 53.7657 104.839 53.9016 104.843C53.9507 104.845 54.0153 104.81 54.0955 104.736C63.5584 95.8316 70.7115 88.732 86.161 73.7906C86.1918 73.7602 86.2143 73.7225 86.2262 73.6809C86.2381 73.6393 86.2391 73.5954 86.229 73.5533C86.2189 73.5112 86.1981 73.4725 86.1686 73.4409C86.1391 73.4092 86.102 73.3858 86.0607 73.3727L74.2714 69.7393C74.2461 69.7318 74.2232 69.7179 74.2048 69.6989C74.1865 69.68 74.1733 69.6566 74.1666 69.6311C74.1599 69.6056 74.1598 69.5788 74.1665 69.5532C74.1731 69.5277 74.1862 69.5043 74.2045 69.4853C77.7076 65.7884 81.7744 62.8904 86.405 60.7912" stroke="#C3E39E" stroke-width="2"/>
<path d="M86.4051 60.7911C87.3032 60.4234 88.7695 60.0424 90.804 59.6479C94.1087 59.0062 97.449 58.8011 100.825 59.0329C100.855 59.0349 100.884 59.0289 100.91 59.0155C100.937 59.0021 100.959 58.9818 100.975 58.9568C100.991 58.9318 100.999 58.903 101 58.8734C101.001 58.8438 100.993 58.8146 100.979 58.7889C99.0045 55.4374 96.629 52.302 93.8524 49.3828C88.9288 44.2052 82.6213 40.7255 75.4615 40.047C68.8855 39.4252 62.8621 41.0509 57.3914 44.9238C57.3834 44.93 57.3776 44.9387 57.3749 44.9485C57.3722 44.9583 57.3728 44.9688 57.3766 44.9782C57.3804 44.9876 57.3872 44.9956 57.3959 45.0009C57.4046 45.0061 57.4148 45.0084 57.4249 45.0074C57.6923 44.9673 57.8717 44.9428 57.963 44.9338C65.7713 44.1628 72.9802 45.4999 79.5896 48.945C79.5961 48.9486 79.6015 48.9537 79.6045 48.9592C79.6076 48.9648 79.6083 48.9704 79.6063 48.975C79.6041 48.9817 79.6018 48.9873 79.5996 48.9917C79.5982 48.9961 79.5949 48.9997 79.59 49.0024C79.5852 49.005 79.5788 49.0067 79.5713 49.0074C79.5638 49.008 79.5553 49.0075 79.5464 49.006C79.5375 49.0044 79.5283 49.0019 79.5194 48.9984C75.4347 47.4296 70.9623 46.731 66.1022 46.9026C62.2761 47.0363 58.6482 47.4241 55.2188 48.0658" stroke="#A0D7A0" stroke-width="2"/>
<path d="M86.4051 60.7878C85.7099 60.634 85.2374 60.5705 84.9879 60.5972C82.6547 60.8468 80.9868 60.9671 79.984 60.9582C76.0598 60.9226 72.0988 59.9944 68.1011 58.1738C64.4554 56.5159 61.0794 54.2106 57.973 51.258C56.743 50.0881 55.8249 49.0229 55.2188 48.0625" stroke="#68BC44" stroke-width="2"/>
<path d="M15.5345 61.4868C19.3428 63.3252 22.8314 65.6439 26.0001 68.4428C26.5372 68.9152 27.0508 69.3085 27.5411 69.6227C27.5642 69.6381 27.5826 69.6597 27.5942 69.685C27.6059 69.7103 27.6101 69.7382 27.6066 69.7655C27.6031 69.7928 27.592 69.8184 27.5745 69.8393C27.5569 69.8602 27.5338 69.8755 27.5076 69.8834L15.4743 73.5068C15.4505 73.5137 15.429 73.5268 15.4118 73.5447C15.3947 73.5627 15.3827 73.5848 15.3769 73.6089C15.3711 73.633 15.3718 73.6582 15.379 73.682C15.3861 73.7057 15.3994 73.7272 15.4175 73.7441L47.9443 104.864C47.9701 104.889 48.0026 104.905 48.0379 104.912C48.0731 104.919 48.1096 104.915 48.143 104.901C48.1765 104.887 48.2054 104.864 48.2265 104.834C48.2475 104.805 48.2598 104.77 48.2618 104.733C48.2952 103.931 48.3186 102.448 48.332 100.284C48.3587 96.4448 48.3777 81.7374 48.3888 56.1621C48.3888 54.2323 48.0869 52.2033 47.483 50.0752C47.4685 50.0248 47.4417 49.9788 47.4049 49.9415C47.3681 49.9041 47.3225 49.8765 47.2724 49.8613C47.0852 49.8078 46.9014 49.839 46.7209 49.9549" stroke="#8CB29B" stroke-width="2"/>
<path d="M46.7216 49.9535C46.0576 49.724 45.4035 49.5402 44.7595 49.402C40.2158 48.4148 35.7735 48.0026 31.4326 48.1652C28.3909 48.2789 25.0549 48.9307 21.4249 50.1207C21.4125 50.125 21.3989 50.1242 21.387 50.1186C21.3751 50.113 21.3659 50.1029 21.3614 50.0906L21.3581 50.0872C21.3511 50.0699 21.3511 50.0506 21.3579 50.0332C21.3648 50.0158 21.3779 50.0017 21.3948 49.9936C24.8109 48.3469 28.4087 47.2226 32.188 46.621C35.2799 46.1263 38.2716 46.1864 41.6208 46.3836C42.5679 46.4393 43.4749 46.6488 44.3417 47.012C44.3631 47.0185 44.386 47.0174 44.4067 47.0089C44.4273 47.0004 44.4444 46.985 44.455 46.9653C44.4657 46.9457 44.4692 46.9229 44.4649 46.901C44.4607 46.8791 44.4491 46.8593 44.432 46.8449C38.4186 42.777 32.3652 40.7213 25.0917 41.4734C14.3219 42.5831 6.64062 50.3379 1.03844 58.925C1.01468 58.9602 1.0014 59.0013 1.00011 59.0437C0.998807 59.0861 1.00954 59.1281 1.0311 59.165C1.05265 59.2018 1.08417 59.2321 1.12209 59.2523C1.16 59.2725 1.20281 59.2819 1.24568 59.2794C6.16152 58.9941 10.9247 59.7295 15.5353 61.4855" stroke="#A0D7A0" stroke-width="2"/>
<path d="M46.7203 49.9531C42.3215 54.9982 36.9031 58.5447 30.4653 60.5926C28.6848 61.1608 26.8609 61.4996 24.9935 61.6087C22.0275 61.7848 19.0715 61.6812 16.1256 61.2979C15.5462 61.2221 15.349 61.2845 15.5339 61.4851" stroke="#318C41" stroke-width="2"/>
<path d="M43.8893 22.6354C43.9561 22.8181 44.306 23.3596 44.9389 24.2599C45.2531 24.7078 45.5617 25.2437 45.8648 25.8677C47.8536 29.9824 49.6352 34.5584 50.872 38.8269C51.5004 40.9884 51.8681 43.14 51.975 45.2815C51.9764 45.3029 51.972 45.3243 51.9623 45.3435C51.9526 45.3626 51.938 45.3788 51.9199 45.3904C51.9018 45.402 51.881 45.4086 51.8595 45.4094C51.8381 45.4102 51.8168 45.4053 51.7979 45.3951C45.2731 41.9589 38.7885 36.9684 35.944 29.8654C33.4905 23.7384 33.7512 17.7084 35.613 11.4611C36.6537 7.97141 37.9941 4.51963 39.6342 1.10573C39.6477 1.07772 39.668 1.05351 39.6933 1.03532C39.7185 1.01713 39.7479 1.00552 39.7787 1.00154C39.8096 0.997556 39.841 1.00134 39.87 1.01252C39.899 1.02371 39.9248 1.04196 39.945 1.06562C40.4085 1.62495 40.7361 1.98148 40.9278 2.13524C43.6063 4.26782 46.3617 6.69232 49.194 9.40873C53.643 13.6806 56.8886 19.8009 57.2496 25.9813C57.448 29.3908 57.2039 32.525 56.5176 35.384C56.0407 37.374 55.3288 39.5779 54.3817 41.9957C54.3717 42.0213 54.3539 42.0431 54.3309 42.0579C54.3078 42.0728 54.2806 42.08 54.2532 42.0786C54.2258 42.0771 54.1995 42.067 54.1782 42.0497C54.1568 42.0324 54.1415 42.0088 54.1343 41.9823C52.2424 34.769 48.579 28.2108 43.9628 22.5919C43.9562 22.5843 43.947 22.5792 43.937 22.5776C43.927 22.576 43.9168 22.578 43.908 22.5831C43.8993 22.5883 43.8927 22.5963 43.8892 22.6059C43.8858 22.6154 43.8858 22.6259 43.8893 22.6354Z" fill="#32AB27"/>
<path d="M73.4686 24.7518C69.7082 25.4638 66.1851 27.5663 63.628 30.2838C63.111 30.8342 62.6854 31.4916 62.3511 32.2559C62.3415 32.2752 62.3255 32.2905 62.306 32.2993C62.2864 32.3082 62.2643 32.31 62.2435 32.3045C62.2227 32.2991 62.2045 32.2866 62.1918 32.2692C62.1791 32.2518 62.1728 32.2306 62.174 32.2092C62.5082 28.9044 63.8375 26.1758 66.1617 24.0231C67.7817 22.5212 69.98 21.3903 72.7566 20.6304C77.8708 19.2299 83.7805 20.3329 88.5503 22.6761C88.5643 22.6832 88.576 22.6942 88.5841 22.7077C88.5921 22.7211 88.5962 22.7366 88.5958 22.7523C88.5955 22.768 88.5907 22.7833 88.5821 22.7964C88.5734 22.8096 88.5613 22.82 88.547 22.8265C86.7465 23.5685 85.1565 24.7229 83.7771 26.2894C81.7025 28.6426 80.5315 29.9752 80.2641 30.2872C76.8457 34.2559 72.5449 36.1055 67.3617 35.8359C65.9377 35.7601 64.4904 35.6331 63.0196 35.4548C62.9967 35.4519 62.9746 35.444 62.9549 35.4317C62.9353 35.4194 62.9185 35.403 62.9058 35.3836C62.8931 35.3643 62.8848 35.3424 62.8813 35.3195C62.8779 35.2965 62.8795 35.2732 62.8859 35.2509C63.5845 32.9078 64.8614 30.7351 66.6731 29.037C67.7338 28.0409 68.3544 27.4727 68.5349 27.3323C69.7494 26.3719 71.404 25.5485 73.4987 24.8621C73.5133 24.8581 73.5257 24.8485 73.5333 24.8353C73.5408 24.8222 73.5428 24.8066 73.5388 24.7919C73.5348 24.7773 73.5251 24.7649 73.512 24.7573C73.4988 24.7498 73.4832 24.7478 73.4686 24.7518Z" fill="#93CC4F"/>
<path d="M86.4051 60.7911C85.7099 60.6373 85.2374 60.5738 84.9879 60.6006C82.6547 60.8502 80.9868 60.9705 79.984 60.9616C76.0598 60.9259 72.0988 59.9978 68.1011 58.1772C64.4554 56.5193 61.0794 54.214 57.973 51.2614C56.743 50.0915 55.8249 49.0263 55.2188 48.0658C58.6482 47.4241 62.2761 47.0363 66.1022 46.9026C70.9623 46.731 75.4347 47.4296 79.5194 48.9984C79.5283 49.0019 79.5375 49.0044 79.5464 49.006C79.5553 49.0075 79.5638 49.008 79.5713 49.0074C79.5788 49.0067 79.5852 49.005 79.59 49.0024C79.5949 48.9997 79.5982 48.9961 79.5996 48.9917C79.6018 48.9873 79.6041 48.9817 79.6063 48.975C79.6083 48.9704 79.6076 48.9648 79.6045 48.9592C79.6015 48.9537 79.5961 48.9486 79.5896 48.945C72.9802 45.4999 65.7713 44.1628 57.963 44.9338C57.8717 44.9428 57.6923 44.9673 57.4249 45.0074C57.4148 45.0084 57.4046 45.0061 57.3959 45.0009C57.3872 44.9956 57.3804 44.9876 57.3766 44.9782C57.3728 44.9688 57.3722 44.9583 57.3749 44.9485C57.3776 44.9387 57.3834 44.93 57.3914 44.9238C62.8621 41.0509 68.8855 39.4252 75.4615 40.047C82.6213 40.7255 88.9288 44.2052 93.8524 49.3828C96.629 52.302 99.0045 55.4374 100.979 58.7889C100.993 58.8146 101.001 58.8438 101 58.8734C100.999 58.903 100.991 58.9318 100.975 58.9568C100.959 58.9818 100.937 59.0021 100.91 59.0155C100.884 59.0289 100.855 59.0349 100.825 59.0329C97.449 58.8011 94.1087 59.0062 90.804 59.6479C88.7695 60.0424 87.3032 60.4234 86.4051 60.7911Z" fill="#32AB27"/>
<path d="M46.7216 49.9535C42.3228 54.9986 36.9044 58.5451 30.4666 60.593C28.6861 61.1612 26.8622 61.5 24.9948 61.6091C22.0288 61.7852 19.0728 61.6816 16.1269 61.2983C15.5475 61.2225 15.3503 61.2849 15.5353 61.4855C10.9247 59.7295 6.16152 58.9941 1.24568 59.2794C1.20281 59.2819 1.16 59.2725 1.12209 59.2523C1.08417 59.2321 1.05265 59.2018 1.0311 59.165C1.00954 59.1281 0.998807 59.0861 1.00011 59.0437C1.0014 59.0013 1.01468 58.9602 1.03844 58.925C6.64062 50.3379 14.3219 42.5831 25.0917 41.4734C32.3652 40.7213 38.4186 42.777 44.432 46.8449C44.4491 46.8593 44.4607 46.8791 44.4649 46.901C44.4692 46.9229 44.4657 46.9457 44.455 46.9653C44.4444 46.985 44.4273 47.0004 44.4067 47.0089C44.386 47.0174 44.3631 47.0185 44.3417 47.012C43.4749 46.6488 42.5679 46.4393 41.6208 46.3836C38.2716 46.1864 35.2799 46.1263 32.188 46.621C28.4087 47.2226 24.8109 48.3469 21.3948 49.9936C21.3779 50.0017 21.3648 50.0158 21.3579 50.0332C21.3511 50.0506 21.3511 50.0699 21.3581 50.0872L21.3614 50.0906C21.3659 50.1029 21.3751 50.113 21.387 50.1186C21.3989 50.1242 21.4125 50.125 21.4249 50.1207C25.0549 48.9307 28.3909 48.2789 31.4326 48.1652C35.7735 48.0026 40.2158 48.4148 44.7595 49.402C45.4035 49.5402 46.0576 49.724 46.7216 49.9535Z" fill="#32AB27"/>
<path d="M55.2186 48.0621C55.8247 49.0225 56.7428 50.0877 57.9729 51.2576C61.0793 54.2102 64.4553 56.5155 68.101 58.1734C72.0987 59.994 76.0597 60.9221 79.9839 60.9578C80.9867 60.9667 82.6546 60.8464 84.9877 60.5968C85.2373 60.57 85.7097 60.6336 86.405 60.7873C81.7744 62.8865 77.7076 65.7845 74.2045 69.4814C74.1862 69.5004 74.1731 69.5238 74.1665 69.5493C74.1598 69.5749 74.1599 69.6017 74.1666 69.6272C74.1733 69.6527 74.1865 69.6761 74.2048 69.695C74.2232 69.714 74.2461 69.7279 74.2714 69.7354L86.0607 73.3688C86.102 73.3819 86.1391 73.4053 86.1686 73.437C86.1981 73.4686 86.2189 73.5073 86.229 73.5494C86.2391 73.5915 86.2381 73.6354 86.2262 73.677C86.2143 73.7186 86.1918 73.7563 86.161 73.7867C70.7115 88.7281 63.5584 95.8277 54.0955 104.732C54.0153 104.806 53.9507 104.842 53.9016 104.839C53.7657 104.835 53.6978 104.762 53.6978 104.622C53.671 85.2128 53.6331 68.7527 53.5841 55.242C53.5774 53.0871 53.8771 50.7785 54.4833 48.3161C54.5088 48.209 54.5749 48.1166 54.6671 48.0587C54.8788 47.9272 55.0626 47.9284 55.2186 48.0621Z" fill="#93CC4F"/>
<path d="M15.5345 61.4868C15.3495 61.2863 15.5468 61.2239 16.1261 61.2996C19.0721 61.6829 22.028 61.7865 24.994 61.6105C26.8614 61.5013 28.6854 61.1626 30.4658 60.5943C36.9037 58.5465 42.322 55 46.7209 49.9549C46.9014 49.839 47.0852 49.8078 47.2724 49.8613C47.3225 49.8765 47.3681 49.9041 47.4049 49.9415C47.4417 49.9788 47.4685 50.0248 47.483 50.0752C48.0869 52.2033 48.3888 54.2323 48.3888 56.1621C48.3777 81.7374 48.3587 96.4448 48.332 100.284C48.3186 102.448 48.2952 103.931 48.2618 104.733C48.2598 104.77 48.2475 104.805 48.2265 104.834C48.2054 104.864 48.1765 104.887 48.143 104.901C48.1096 104.915 48.0731 104.919 48.0379 104.912C48.0026 104.905 47.9701 104.889 47.9443 104.864L15.4175 73.7441C15.3994 73.7272 15.3861 73.7057 15.379 73.682C15.3718 73.6582 15.3711 73.633 15.3769 73.6089C15.3827 73.5848 15.3947 73.5627 15.4118 73.5447C15.429 73.5268 15.4505 73.5137 15.4743 73.5068L27.5076 69.8834C27.5338 69.8755 27.5569 69.8602 27.5745 69.8393C27.592 69.8184 27.6031 69.7928 27.6066 69.7655C27.6101 69.7382 27.6059 69.7103 27.5942 69.685C27.5826 69.6597 27.5642 69.6381 27.5411 69.6227C27.0508 69.3085 26.5372 68.9152 26.0001 68.4428C22.8314 65.6439 19.3428 63.3252 15.5345 61.4868Z" fill="#1D673C"/>
</svg>
