<svg width="602" height="626" viewBox="0 0 602 626" fill="none" xmlns="http://www.w3.org/2000/svg">
<path d="M258.785 130.552C286.482 164.265 308.463 203.614 319.814 246.894C319.857 247.053 319.949 247.195 320.077 247.298C320.205 247.402 320.363 247.463 320.527 247.472C320.692 247.481 320.855 247.437 320.993 247.348C321.132 247.259 321.238 247.128 321.298 246.974C326.981 232.467 331.252 219.244 334.114 207.304C338.232 190.15 339.696 171.345 338.506 150.888C336.34 113.805 316.866 77.0835 290.172 51.4524C273.178 35.1539 256.646 20.6069 240.574 7.81147C239.425 6.88891 237.459 4.74968 234.678 1.39372C234.557 1.25176 234.402 1.14227 234.228 1.07514C234.054 1.00802 233.866 0.985337 233.68 1.00923C233.495 1.03312 233.319 1.10279 233.167 1.21194C233.016 1.32108 232.894 1.46629 232.813 1.63437C222.972 22.1178 214.93 42.8285 208.686 63.7665C197.515 101.25 195.951 137.431 210.672 174.193C227.739 216.811 266.647 246.754 305.795 267.371C305.909 267.432 306.036 267.462 306.165 267.457C306.294 267.452 306.419 267.413 306.527 267.343C306.636 267.273 306.724 267.176 306.782 267.061C306.84 266.946 306.866 266.818 306.858 266.689C306.216 253.84 304.01 240.931 300.24 227.962C292.819 202.351 282.13 174.895 270.197 150.206C268.378 146.462 266.526 143.247 264.641 140.559C260.844 135.158 258.745 131.909 258.344 130.812C258.323 130.755 258.323 130.693 258.343 130.635C258.364 130.578 258.404 130.53 258.456 130.499C258.508 130.468 258.57 130.456 258.63 130.466C258.69 130.476 258.745 130.506 258.785 130.552Z" stroke="#A0D7A0" stroke-width="2"/>
<path d="M435.994 144.185C423.426 148.303 413.498 153.243 406.212 159.006C405.129 159.848 401.405 163.257 395.041 169.234C384.17 179.422 376.509 192.458 372.318 206.517C372.279 206.651 372.269 206.791 372.29 206.929C372.311 207.066 372.361 207.197 372.437 207.314C372.513 207.43 372.614 207.528 372.732 207.602C372.849 207.676 372.982 207.723 373.12 207.741C381.944 208.81 390.628 209.572 399.172 210.027C430.272 211.645 456.076 200.547 476.587 176.735C478.191 174.863 485.217 166.867 497.665 152.748C505.941 143.349 515.481 136.423 526.284 131.971C526.37 131.932 526.443 131.869 526.495 131.79C526.547 131.712 526.575 131.62 526.577 131.526C526.579 131.432 526.555 131.339 526.507 131.258C526.458 131.177 526.388 131.111 526.304 131.068C497.685 117.009 462.227 110.391 431.542 118.794C414.882 123.353 401.692 130.139 391.972 139.151C378.027 152.066 370.051 168.438 368.046 188.267C368.039 188.396 368.077 188.523 368.153 188.627C368.229 188.731 368.338 188.806 368.463 188.839C368.588 188.872 368.72 188.861 368.838 188.808C368.955 188.755 369.051 188.663 369.109 188.547C371.114 183.961 373.668 180.017 376.77 176.715C392.112 160.41 413.251 147.795 435.814 143.523C435.901 143.499 435.995 143.511 436.074 143.556C436.153 143.601 436.211 143.676 436.235 143.763C436.259 143.851 436.247 143.945 436.202 144.024C436.157 144.103 436.082 144.161 435.994 144.185Z" stroke="#C3E39E" stroke-width="2"/>
<path d="M326.312 283.396C325.376 282.594 324.273 282.587 323.003 283.376C322.449 283.723 322.053 284.277 321.9 284.92C318.263 299.694 316.464 313.546 316.505 326.475C316.799 407.54 317.026 506.3 317.187 622.756C317.187 623.599 317.594 624.033 318.41 624.06C318.704 624.073 319.092 623.859 319.573 623.418C376.35 569.99 419.269 527.392 511.966 437.744C512.151 437.562 512.286 437.335 512.358 437.085C512.429 436.836 512.435 436.572 512.374 436.32C512.314 436.068 512.189 435.835 512.012 435.645C511.835 435.456 511.612 435.315 511.365 435.237L440.629 413.436C440.477 413.391 440.339 413.308 440.229 413.194C440.119 413.08 440.04 412.94 440 412.787C439.96 412.634 439.959 412.473 439.999 412.32C440.039 412.166 440.118 412.026 440.227 411.912C461.246 389.73 485.647 372.342 513.43 359.747" stroke="#C3E39E" stroke-width="2"/>
<path d="M513.431 359.747C518.819 357.541 527.617 355.254 539.824 352.888C559.653 349.037 579.695 347.807 599.951 349.198C600.128 349.21 600.305 349.174 600.463 349.093C600.621 349.013 600.755 348.891 600.849 348.741C600.944 348.591 600.996 348.418 601 348.241C601.005 348.063 600.961 347.888 600.874 347.733C589.027 327.624 574.774 308.812 558.115 291.297C528.573 260.231 490.728 239.353 447.769 235.282C408.313 231.551 372.173 241.305 339.349 264.543C339.3 264.58 339.266 264.632 339.249 264.691C339.233 264.75 339.237 264.813 339.26 264.869C339.282 264.926 339.323 264.974 339.375 265.005C339.427 265.037 339.489 265.051 339.549 265.044C341.154 264.804 342.23 264.657 342.778 264.603C389.628 259.977 432.881 267.999 472.538 288.67C472.577 288.692 472.609 288.722 472.628 288.756C472.646 288.789 472.65 288.823 472.638 288.85C472.625 288.89 472.611 288.924 472.598 288.951C472.589 288.976 472.57 288.998 472.541 289.014C472.511 289.03 472.473 289.041 472.428 289.044C472.383 289.048 472.332 289.045 472.279 289.036C472.225 289.027 472.17 289.011 472.117 288.991C447.609 279.578 420.774 275.386 391.613 276.416C368.657 277.218 346.89 279.544 326.312 283.395" stroke="#A0D7A0" stroke-width="2"/>
<path d="M513.431 359.742C509.26 358.82 506.425 358.439 504.928 358.599C490.929 360.097 480.921 360.819 474.904 360.765C451.359 360.551 427.593 354.982 403.607 344.059C381.733 334.111 361.477 320.28 342.838 302.564C335.458 295.544 329.949 289.153 326.312 283.391" stroke="#68BC44" stroke-width="2"/>
<path d="M88.2108 363.921C111.061 374.952 131.992 388.863 151.005 405.657C154.227 408.491 157.309 410.851 160.251 412.736C160.389 412.829 160.5 412.958 160.57 413.11C160.639 413.262 160.665 413.429 160.644 413.593C160.623 413.757 160.556 413.911 160.451 414.036C160.346 414.161 160.207 414.253 160.05 414.301L87.8499 436.041C87.707 436.082 87.5776 436.161 87.475 436.269C87.3723 436.376 87.3 436.509 87.2653 436.654C87.2307 436.798 87.235 436.95 87.2778 437.092C87.3205 437.235 87.4003 437.363 87.5089 437.465L282.67 624.182C282.825 624.332 283.02 624.432 283.231 624.472C283.443 624.512 283.662 624.489 283.862 624.407C284.063 624.324 284.237 624.186 284.363 624.007C284.49 623.829 284.563 623.618 284.575 623.4C284.776 618.587 284.916 609.689 284.996 596.706C285.157 573.669 285.27 485.424 285.337 331.972C285.337 320.394 283.526 308.22 279.902 295.451C279.815 295.149 279.654 294.873 279.434 294.649C279.213 294.425 278.94 294.259 278.639 294.168C277.516 293.847 276.412 294.034 275.329 294.729" stroke="#8CB29B" stroke-width="2"/>
<path d="M275.33 294.729C271.346 293.352 267.422 292.249 263.558 291.42C236.296 285.497 209.642 283.023 183.596 283.999C165.345 284.681 145.33 288.592 123.55 295.732C123.475 295.758 123.393 295.753 123.322 295.72C123.251 295.686 123.196 295.625 123.169 295.551L123.149 295.531C123.107 295.427 123.107 295.311 123.148 295.207C123.189 295.103 123.268 295.018 123.369 294.97C143.866 285.089 165.452 278.344 188.129 274.734C206.68 271.765 224.63 272.126 244.726 273.31C250.408 273.644 255.85 274.901 261.051 277.08C261.179 277.119 261.317 277.112 261.441 277.061C261.565 277.01 261.667 276.918 261.731 276.8C261.794 276.682 261.815 276.545 261.79 276.414C261.765 276.282 261.695 276.163 261.592 276.077C225.512 251.67 189.192 239.336 145.551 243.848C80.9315 250.506 34.8438 297.035 1.23064 348.558C1.08808 348.769 1.00842 349.016 1.00063 349.27C0.992845 349.525 1.05725 349.777 1.18657 349.998C1.3159 350.219 1.50501 350.4 1.73252 350.522C1.96003 350.643 2.21686 350.699 2.47408 350.684C31.9692 348.973 60.5484 353.385 88.2117 363.921" stroke="#A0D7A0" stroke-width="2"/>
<path d="M275.328 294.727C248.935 324.997 216.425 346.276 177.798 358.564C167.115 361.973 156.171 364.005 144.967 364.66C127.171 365.717 109.435 365.095 91.7593 362.795C88.283 362.341 87.0997 362.715 88.2094 363.918" stroke="#318C41" stroke-width="2"/>
<path d="M258.344 130.812C258.745 131.909 260.844 135.158 264.641 140.559C266.526 143.247 268.378 146.462 270.197 150.206C282.13 174.895 292.819 202.351 300.24 227.962C304.01 240.931 306.216 253.84 306.858 266.689C306.866 266.818 306.84 266.946 306.782 267.061C306.724 267.176 306.636 267.273 306.527 267.343C306.419 267.413 306.294 267.452 306.165 267.457C306.036 267.462 305.909 267.432 305.795 267.371C266.647 246.754 227.739 216.811 210.672 174.193C195.951 137.431 197.515 101.25 208.686 63.7665C214.93 42.8285 222.972 22.1178 232.813 1.63437C232.894 1.46629 233.016 1.32108 233.167 1.21194C233.319 1.10279 233.495 1.03312 233.68 1.00923C233.866 0.985337 234.054 1.00802 234.228 1.07514C234.402 1.14227 234.557 1.25176 234.678 1.39372C237.459 4.74968 239.425 6.88891 240.574 7.81147C256.646 20.6069 273.178 35.1539 290.172 51.4524C316.866 77.0835 336.34 113.805 338.506 150.888C339.696 171.345 338.232 190.15 334.114 207.304C331.252 219.244 326.981 232.467 321.298 246.974C321.238 247.128 321.132 247.259 320.993 247.348C320.855 247.437 320.692 247.481 320.527 247.472C320.363 247.463 320.205 247.402 320.077 247.298C319.949 247.195 319.857 247.053 319.814 246.894C308.463 203.614 286.482 164.265 258.785 130.552C258.745 130.506 258.69 130.476 258.63 130.466C258.57 130.456 258.508 130.468 258.456 130.499C258.404 130.53 258.364 130.578 258.343 130.635C258.323 130.693 258.323 130.755 258.344 130.812Z" fill="#DFDFDF"/>
<path d="M435.818 143.523C413.255 147.795 392.116 160.41 376.774 176.715C373.672 180.017 371.118 183.961 369.113 188.547C369.055 188.663 368.959 188.755 368.842 188.808C368.724 188.861 368.592 188.872 368.467 188.839C368.342 188.806 368.233 188.731 368.157 188.627C368.081 188.523 368.043 188.396 368.05 188.267C370.055 168.438 378.031 152.066 391.976 139.151C401.696 130.139 414.886 123.353 431.546 118.794C462.231 110.391 497.689 117.009 526.308 131.068C526.392 131.111 526.462 131.177 526.511 131.258C526.559 131.339 526.583 131.432 526.581 131.526C526.579 131.62 526.55 131.712 526.499 131.79C526.447 131.869 526.374 131.932 526.288 131.971C515.485 136.423 505.945 143.349 497.669 152.748C485.221 166.867 478.195 174.863 476.59 176.735C456.08 200.547 430.275 211.645 399.176 210.027C390.632 209.572 381.948 208.81 373.124 207.741C372.986 207.723 372.853 207.676 372.735 207.602C372.618 207.528 372.517 207.43 372.441 207.314C372.365 207.197 372.315 207.066 372.294 206.929C372.273 206.791 372.283 206.651 372.321 206.517C376.513 192.458 384.174 179.422 395.044 169.234C401.409 163.257 405.132 159.848 406.215 159.006C413.502 153.243 423.43 148.303 435.998 144.185C436.086 144.161 436.16 144.103 436.206 144.024C436.251 143.945 436.263 143.851 436.239 143.763C436.215 143.676 436.157 143.601 436.078 143.556C435.999 143.511 435.905 143.499 435.818 143.523Z" fill="#C4C4C4"/>
<path d="M513.431 359.747C509.26 358.824 506.425 358.443 504.928 358.604C490.929 360.101 480.921 360.823 474.904 360.77C451.359 360.556 427.593 354.987 403.607 344.063C381.733 334.116 361.477 320.284 342.838 302.568C335.458 295.549 329.949 289.158 326.312 283.395C346.89 279.544 368.657 277.218 391.613 276.416C420.774 275.386 447.609 279.578 472.117 288.991C472.17 289.011 472.225 289.027 472.279 289.036C472.332 289.045 472.383 289.048 472.428 289.044C472.473 289.041 472.511 289.03 472.541 289.014C472.57 288.998 472.589 288.976 472.598 288.951C472.611 288.924 472.625 288.89 472.638 288.85C472.65 288.823 472.646 288.789 472.628 288.756C472.609 288.722 472.577 288.692 472.538 288.67C432.881 267.999 389.628 259.977 342.778 264.603C342.23 264.657 341.154 264.804 339.549 265.044C339.489 265.051 339.427 265.037 339.375 265.005C339.323 264.974 339.282 264.926 339.26 264.869C339.237 264.813 339.233 264.75 339.249 264.691C339.266 264.632 339.3 264.58 339.349 264.543C372.173 241.305 408.313 231.551 447.769 235.282C490.728 239.353 528.573 260.231 558.115 291.297C574.774 308.812 589.027 327.624 600.874 347.733C600.961 347.888 601.005 348.063 601 348.241C600.996 348.418 600.944 348.591 600.849 348.741C600.755 348.891 600.621 349.013 600.463 349.093C600.305 349.174 600.128 349.21 599.951 349.198C579.695 347.807 559.653 349.037 539.824 352.888C527.617 355.254 518.819 357.541 513.431 359.747Z" fill="#DFDFDF"/>
<path d="M275.33 294.721C248.937 324.992 216.427 346.271 177.8 358.558C167.117 361.968 156.173 364 144.969 364.655C127.173 365.711 109.437 365.09 91.7616 362.79C88.2853 362.335 87.102 362.71 88.2117 363.913C60.5484 353.377 31.9692 348.965 2.47408 350.676C2.21686 350.691 1.96003 350.635 1.73252 350.514C1.50501 350.392 1.3159 350.211 1.18657 349.99C1.05725 349.769 0.992845 349.517 1.00063 349.262C1.00842 349.008 1.08808 348.761 1.23064 348.55C34.8438 297.028 80.9315 250.499 145.551 243.84C189.192 239.328 225.512 251.662 261.592 276.07C261.695 276.156 261.765 276.274 261.79 276.406C261.815 276.538 261.794 276.674 261.731 276.792C261.667 276.91 261.565 277.002 261.441 277.053C261.317 277.104 261.179 277.111 261.051 277.072C255.85 274.893 250.408 273.636 244.726 273.302C224.63 272.119 206.68 271.758 188.129 274.726C165.452 278.336 143.866 285.081 123.369 294.962C123.268 295.01 123.189 295.095 123.148 295.199C123.107 295.303 123.107 295.419 123.149 295.523L123.169 295.544C123.196 295.618 123.251 295.678 123.322 295.712C123.393 295.745 123.475 295.75 123.55 295.724C145.33 288.584 165.345 284.673 183.596 283.991C209.642 283.015 236.296 285.489 263.558 291.412C267.422 292.241 271.346 293.344 275.33 294.721Z" fill="#DFDFDF"/>
<path d="M326.312 283.388C329.949 289.151 335.457 295.542 342.838 302.561C361.476 320.277 381.732 334.109 403.606 344.056C427.592 354.98 451.358 360.548 474.904 360.762C480.92 360.816 490.928 360.094 504.927 358.596C506.424 358.436 509.259 358.817 513.43 359.74C485.647 372.335 461.246 389.723 440.227 411.904C440.118 412.018 440.039 412.159 439.999 412.312C439.959 412.465 439.96 412.626 440 412.779C440.04 412.932 440.119 413.072 440.229 413.186C440.339 413.3 440.477 413.383 440.629 413.428L511.365 435.229C511.612 435.307 511.835 435.448 512.012 435.638C512.189 435.827 512.314 436.06 512.374 436.312C512.435 436.565 512.429 436.828 512.358 437.078C512.286 437.327 512.151 437.554 511.966 437.736C419.269 527.384 376.35 569.982 319.573 623.41C319.092 623.852 318.704 624.066 318.41 624.052C317.594 624.025 317.187 623.591 317.187 622.749C317.026 506.292 316.799 407.532 316.505 326.467C316.464 313.538 318.263 299.687 321.9 284.912C322.053 284.27 322.449 283.715 323.003 283.368C324.273 282.579 325.376 282.586 326.312 283.388Z" fill="#C4C4C4"/>
<path d="M88.2108 363.921C87.1011 362.718 88.2844 362.343 91.7607 362.798C109.436 365.098 127.172 365.719 144.968 364.663C156.173 364.008 167.116 361.976 177.799 358.566C216.426 346.279 248.936 325 275.329 294.729C276.412 294.034 277.516 293.847 278.639 294.168C278.94 294.259 279.213 294.425 279.434 294.649C279.654 294.873 279.815 295.149 279.902 295.451C283.526 308.22 285.337 320.394 285.337 331.972C285.27 485.424 285.157 573.669 284.996 596.706C284.916 609.689 284.776 618.587 284.575 623.4C284.563 623.618 284.49 623.829 284.363 624.007C284.237 624.186 284.063 624.324 283.862 624.407C283.662 624.489 283.443 624.512 283.231 624.472C283.02 624.432 282.825 624.332 282.67 624.182L87.5089 437.465C87.4003 437.363 87.3205 437.235 87.2778 437.092C87.235 436.95 87.2307 436.798 87.2653 436.654C87.3 436.509 87.3723 436.376 87.475 436.269C87.5776 436.161 87.707 436.082 87.8499 436.041L160.05 414.301C160.207 414.253 160.346 414.161 160.451 414.036C160.556 413.911 160.623 413.757 160.644 413.593C160.665 413.429 160.639 413.262 160.57 413.11C160.5 412.958 160.389 412.829 160.251 412.736C157.309 410.851 154.227 408.491 151.005 405.657C131.992 388.863 111.061 374.952 88.2108 363.921Z" fill="white"/>
</svg>
