<svg width="202" height="210" viewBox="0 0 202 210" fill="none" xmlns="http://www.w3.org/2000/svg">
<path d="M86.9276 44.1839C96.1599 55.4217 103.487 68.538 107.271 82.9646C107.285 83.0177 107.316 83.0648 107.358 83.0994C107.401 83.134 107.453 83.1542 107.508 83.1571C107.563 83.1601 107.618 83.1457 107.664 83.1159C107.71 83.0861 107.745 83.0426 107.765 82.9914C109.659 78.1558 111.083 73.748 112.037 69.7681C113.41 64.05 113.898 57.7815 113.501 50.9626C112.779 38.6017 106.288 26.3611 97.3899 17.8175C91.7254 12.3846 86.2145 7.53564 80.8575 3.27049C80.4742 2.96297 79.819 2.24989 78.892 1.13124C78.8516 1.08392 78.8 1.04742 78.742 1.02505C78.6839 1.00267 78.6212 0.995112 78.5595 1.00308C78.4977 1.01104 78.439 1.03426 78.3885 1.07065C78.338 1.10703 78.2974 1.15543 78.2703 1.21146C74.9901 8.03926 72.3094 14.9428 70.228 21.9222C66.5044 34.4168 65.9829 46.4769 70.8899 58.7308C76.5789 72.9368 89.5482 82.9178 102.598 89.7902C102.636 89.8106 102.678 89.8205 102.721 89.8188C102.764 89.8172 102.806 89.8041 102.842 89.7809C102.878 89.7577 102.907 89.7253 102.927 89.6869C102.946 89.6486 102.955 89.6058 102.952 89.5629C102.738 85.28 102.003 80.9769 100.746 76.6538C98.2724 68.1168 94.7092 58.9648 90.7315 50.7353C90.1254 49.4874 89.5081 48.4156 88.8797 47.5198C87.614 45.7192 86.9143 44.6362 86.7806 44.2708C86.7736 44.2517 86.7736 44.2308 86.7804 44.2118C86.7873 44.1927 86.8006 44.1766 86.818 44.1663C86.8355 44.156 86.856 44.1521 86.876 44.1553C86.896 44.1585 86.9143 44.1686 86.9276 44.1839Z" stroke="#A0D7A0" stroke-width="2"/>
<path d="M145.997 48.7282C141.808 50.1009 138.499 51.7477 136.07 53.6685C135.709 53.9493 134.468 55.0858 132.346 57.078C128.723 60.474 126.169 64.8194 124.772 69.5057C124.759 69.5502 124.756 69.597 124.763 69.6428C124.77 69.6887 124.786 69.7325 124.812 69.7712C124.837 69.81 124.871 69.8427 124.91 69.8673C124.949 69.8919 124.993 69.9077 125.039 69.9135C127.981 70.2701 130.875 70.5241 133.723 70.6757C144.09 71.2149 152.691 67.5158 159.528 59.5782C160.063 58.9543 162.405 56.2891 166.554 51.5828C169.313 48.4496 172.493 46.141 176.094 44.6569C176.123 44.6438 176.147 44.623 176.164 44.5968C176.181 44.5706 176.191 44.54 176.192 44.5086C176.192 44.4772 176.184 44.4462 176.168 44.4192C176.152 44.3923 176.129 44.3704 176.101 44.356C166.561 39.6697 154.742 37.4636 144.513 40.2647C138.96 41.7845 134.563 44.0463 131.323 47.0502C126.675 51.3554 124.016 56.8128 123.348 63.4222C123.346 63.4652 123.358 63.5076 123.384 63.5423C123.409 63.577 123.445 63.602 123.487 63.613C123.529 63.624 123.573 63.6203 123.612 63.6026C123.651 63.5849 123.683 63.5543 123.702 63.5158C124.371 61.9871 125.222 60.6724 126.256 59.5715C131.37 54.1365 138.416 49.9315 145.937 48.5076C145.966 48.4996 145.998 48.5036 146.024 48.5186C146.05 48.5336 146.07 48.5585 146.078 48.5878C146.086 48.617 146.082 48.6483 146.067 48.6746C146.051 48.7009 146.027 48.7202 145.997 48.7282Z" stroke="#C3E39E" stroke-width="2"/>
<path d="M109.437 95.1319C109.125 94.8645 108.758 94.8623 108.334 95.1252C108.15 95.2409 108.018 95.4258 107.967 95.64C106.754 100.565 106.155 105.182 106.168 109.492C106.266 136.513 106.342 169.433 106.396 208.252C106.396 208.533 106.531 208.678 106.803 208.687C106.901 208.691 107.031 208.62 107.191 208.473C126.117 190.663 140.423 176.464 171.322 146.581C171.384 146.52 171.429 146.445 171.452 146.362C171.476 146.279 171.478 146.191 171.458 146.107C171.438 146.023 171.396 145.945 171.337 145.882C171.278 145.818 171.204 145.772 171.121 145.745L147.543 138.479C147.492 138.464 147.446 138.436 147.41 138.398C147.373 138.36 147.347 138.313 147.333 138.262C147.32 138.211 147.32 138.158 147.333 138.106C147.346 138.055 147.372 138.009 147.409 137.971C154.415 130.577 162.549 124.781 171.81 120.582" stroke="#C3E39E" stroke-width="2"/>
<path d="M171.81 120.582C173.606 119.847 176.539 119.085 180.608 118.296C187.217 117.012 193.898 116.602 200.65 117.066C200.709 117.07 200.768 117.058 200.821 117.031C200.874 117.004 200.918 116.964 200.95 116.914C200.981 116.864 200.999 116.806 201 116.747C201.001 116.688 200.987 116.629 200.958 116.578C197.009 109.875 192.258 103.604 186.705 97.7657C176.858 87.4103 164.243 80.451 149.923 79.0939C136.771 77.8505 124.724 81.1017 113.783 88.8476C113.767 88.8601 113.755 88.8774 113.75 88.8971C113.744 88.9167 113.746 88.9375 113.753 88.9564C113.761 88.9753 113.774 88.9912 113.792 89.0017C113.809 89.0123 113.83 89.0168 113.85 89.0148C114.385 88.9345 114.743 88.8855 114.926 88.8677C130.543 87.3256 144.96 89.9997 158.179 96.8899C158.192 96.8972 158.203 96.9074 158.209 96.9185C158.215 96.9296 158.217 96.9409 158.213 96.9501C158.208 96.9634 158.204 96.9746 158.199 96.9835C158.196 96.9921 158.19 96.9993 158.18 97.0047C158.17 97.0101 158.158 97.0135 158.143 97.0147C158.128 97.016 158.111 97.015 158.093 97.012C158.075 97.0089 158.057 97.0038 158.039 96.9969C149.869 93.8593 140.925 92.4621 131.204 92.8052C123.552 93.0727 116.296 93.8481 109.438 95.1317" stroke="#A0D7A0" stroke-width="2"/>
<path d="M171.81 120.579C170.42 120.272 169.475 120.145 168.976 120.198C164.309 120.698 160.974 120.938 158.968 120.92C151.12 120.849 143.198 118.993 135.202 115.352C127.911 112.036 121.159 107.425 114.946 101.52C112.486 99.1801 110.65 97.0498 109.438 95.1289" stroke="#68BC44" stroke-width="2"/>
<path d="M30.069 121.974C37.6856 125.65 44.6627 130.288 51.0003 135.886C52.0744 136.83 53.1017 137.617 54.0822 138.245C54.1284 138.276 54.1653 138.319 54.1885 138.37C54.2117 138.421 54.2203 138.476 54.2133 138.531C54.2063 138.586 54.184 138.637 54.1489 138.679C54.1139 138.72 54.0675 138.751 54.0153 138.767L29.9486 146.014C29.901 146.027 29.8579 146.054 29.8237 146.089C29.7895 146.125 29.7654 146.17 29.7538 146.218C29.7423 146.266 29.7437 146.316 29.758 146.364C29.7722 146.411 29.7988 146.454 29.835 146.488L94.8885 208.727C94.9403 208.777 95.0053 208.811 95.0757 208.824C95.1462 208.837 95.2192 208.83 95.2861 208.802C95.3529 208.775 95.4109 208.728 95.453 208.669C95.4951 208.61 95.5196 208.539 95.5236 208.467C95.5905 206.862 95.6373 203.896 95.664 199.569C95.7175 191.89 95.7554 162.475 95.7776 111.324C95.7776 107.465 95.1738 103.407 93.966 99.1504C93.937 99.0496 93.8833 98.9576 93.8098 98.8829C93.7362 98.8082 93.6451 98.7531 93.5448 98.7225C93.1704 98.6156 92.8027 98.678 92.4417 98.9097" stroke="#8CB29B" stroke-width="2"/>
<path d="M92.4433 98.9071C91.1152 98.448 89.8071 98.0803 88.5191 97.804C79.4317 95.8296 70.5471 95.0051 61.8653 95.3305C55.7817 95.5578 49.1099 96.8614 41.8498 99.2413C41.825 99.2499 41.7978 99.2485 41.774 99.2372C41.7502 99.226 41.7319 99.2058 41.7228 99.1812L41.7161 99.1745C41.7023 99.1398 41.7022 99.1011 41.7159 99.0664C41.7296 99.0316 41.7559 99.0033 41.7896 98.9873C48.6219 95.6937 55.8174 93.4453 63.3761 92.2419C69.5599 91.2525 75.5431 91.3729 82.2417 91.7673C84.1358 91.8787 85.9498 92.2976 87.6835 93.0241C87.7262 93.037 87.7721 93.0348 87.8134 93.0177C87.8547 93.0007 87.8889 92.97 87.9101 92.9306C87.9313 92.8913 87.9383 92.8459 87.9299 92.802C87.9215 92.7581 87.8982 92.7185 87.8639 92.6898C75.8373 84.554 63.7304 80.4426 49.1835 81.9467C27.6438 84.1662 12.2812 99.6759 1.07688 116.85C1.02936 116.92 1.00281 117.003 1.00021 117.087C0.997615 117.172 1.01908 117.256 1.06219 117.33C1.1053 117.404 1.16834 117.464 1.24417 117.505C1.32001 117.545 1.40562 117.564 1.49136 117.559C11.323 116.988 20.8494 118.459 30.0705 121.971" stroke="#A0D7A0" stroke-width="2"/>
<path d="M92.4426 98.9062C83.6449 108.996 72.8082 116.089 59.9325 120.185C56.3716 121.322 52.7237 121.999 48.9889 122.218C43.0569 122.57 37.145 122.362 31.2531 121.596C30.0943 121.444 29.6999 121.569 30.0698 121.97" stroke="#318C41" stroke-width="2"/>
<path d="M86.7806 44.2708C86.9143 44.6362 87.614 45.7192 88.8797 47.5198C89.5081 48.4156 90.1254 49.4874 90.7315 50.7353C94.7092 58.9648 98.2724 68.1168 100.746 76.6538C102.003 80.9769 102.738 85.28 102.952 89.5629C102.955 89.6058 102.946 89.6486 102.927 89.6869C102.907 89.7253 102.878 89.7577 102.842 89.7809C102.806 89.8041 102.764 89.8172 102.721 89.8188C102.678 89.8205 102.636 89.8106 102.598 89.7902C89.5482 82.9178 76.5789 72.9368 70.8899 58.7308C65.9829 46.4769 66.5044 34.4168 70.228 21.9222C72.3094 14.9428 74.9901 8.03926 78.2703 1.21146C78.2974 1.15543 78.338 1.10703 78.3885 1.07065C78.439 1.03426 78.4977 1.01104 78.5595 1.00308C78.6212 0.995112 78.6839 1.00267 78.742 1.02505C78.8 1.04742 78.8516 1.08392 78.892 1.13124C79.819 2.24989 80.4742 2.96297 80.8575 3.27049C86.2145 7.53564 91.7254 12.3846 97.3899 17.8175C106.288 26.3611 112.779 38.6017 113.501 50.9626C113.898 57.7815 113.41 64.05 112.037 69.7681C111.083 73.748 109.659 78.1558 107.765 82.9914C107.745 83.0426 107.71 83.0861 107.664 83.1159C107.618 83.1457 107.563 83.1601 107.508 83.1571C107.453 83.1542 107.401 83.134 107.358 83.0994C107.316 83.0648 107.285 83.0177 107.271 82.9646C103.487 68.538 96.1599 55.4217 86.9276 44.1839C86.9143 44.1686 86.896 44.1585 86.876 44.1553C86.856 44.1521 86.8355 44.156 86.818 44.1663C86.8006 44.1766 86.7873 44.1927 86.7804 44.2118C86.7736 44.2308 86.7736 44.2517 86.7806 44.2708Z" fill="#32AB27"/>
<path d="M145.939 48.5076C138.418 49.9315 131.372 54.1365 126.258 59.5715C125.224 60.6724 124.373 61.9871 123.704 63.5158C123.685 63.5543 123.653 63.5849 123.614 63.6026C123.575 63.6203 123.531 63.624 123.489 63.613C123.447 63.602 123.411 63.577 123.386 63.5423C123.36 63.5076 123.348 63.4652 123.35 63.4222C124.018 56.8128 126.677 51.3554 131.325 47.0502C134.565 44.0463 138.962 41.7845 144.515 40.2647C154.744 37.4636 166.563 39.6697 176.103 44.356C176.131 44.3704 176.154 44.3923 176.17 44.4192C176.186 44.4462 176.194 44.4772 176.194 44.5086C176.193 44.54 176.183 44.5706 176.166 44.5968C176.149 44.623 176.125 44.6438 176.096 44.6569C172.495 46.141 169.315 48.4496 166.556 51.5828C162.407 56.2891 160.065 58.9543 159.53 59.5782C152.693 67.5158 144.092 71.2149 133.725 70.6757C130.877 70.5241 127.983 70.2701 125.041 69.9135C124.995 69.9077 124.951 69.8919 124.912 69.8673C124.873 69.8427 124.839 69.81 124.814 69.7712C124.788 69.7325 124.772 69.6887 124.765 69.6428C124.758 69.597 124.761 69.5502 124.774 69.5057C126.171 64.8194 128.725 60.474 132.348 57.078C134.47 55.0858 135.711 53.9493 136.072 53.6685C138.501 51.7477 141.81 50.1009 145.999 48.7282C146.029 48.7202 146.053 48.7009 146.068 48.6746C146.084 48.6483 146.087 48.617 146.079 48.5878C146.072 48.5585 146.052 48.5336 146.026 48.5186C146 48.5036 145.968 48.4996 145.939 48.5076Z" fill="#93CC4F"/>
<path d="M171.81 120.582C170.42 120.275 169.475 120.148 168.976 120.201C164.309 120.7 160.974 120.941 158.968 120.923C151.12 120.852 143.198 118.996 135.202 115.354C127.911 112.039 121.159 107.428 114.946 101.523C112.486 99.1829 110.65 97.0526 109.438 95.1317C116.296 93.8481 123.552 93.0727 131.204 92.8052C140.925 92.4621 149.869 93.8593 158.039 96.9969C158.057 97.0038 158.075 97.0089 158.093 97.012C158.111 97.015 158.128 97.016 158.143 97.0147C158.158 97.0135 158.17 97.0101 158.18 97.0047C158.19 96.9993 158.196 96.9921 158.199 96.9835C158.204 96.9746 158.208 96.9634 158.213 96.9501C158.217 96.9409 158.215 96.9296 158.209 96.9185C158.203 96.9074 158.192 96.8972 158.179 96.8899C144.96 89.9997 130.543 87.3256 114.926 88.8677C114.743 88.8855 114.385 88.9345 113.85 89.0148C113.83 89.0168 113.809 89.0123 113.792 89.0017C113.774 88.9912 113.761 88.9753 113.753 88.9564C113.746 88.9375 113.744 88.9167 113.75 88.8971C113.755 88.8774 113.767 88.8601 113.783 88.8476C124.724 81.1017 136.771 77.8505 149.923 79.0939C164.243 80.451 176.858 87.4103 186.705 97.7657C192.258 103.604 197.009 109.875 200.958 116.578C200.987 116.629 201.001 116.688 201 116.747C200.999 116.806 200.981 116.864 200.95 116.914C200.918 116.964 200.874 117.004 200.821 117.031C200.768 117.058 200.709 117.07 200.65 117.066C193.898 116.602 187.217 117.012 180.608 118.296C176.539 119.085 173.606 119.847 171.81 120.582Z" fill="#32AB27"/>
<path d="M92.4433 98.9071C83.6456 108.997 72.8089 116.09 59.9332 120.186C56.3723 121.323 52.7244 122 48.9896 122.218C43.0576 122.57 37.1457 122.363 31.2538 121.597C30.095 121.445 29.7006 121.57 30.0705 121.971C20.8494 118.459 11.323 116.988 1.49136 117.559C1.40562 117.564 1.32001 117.545 1.24417 117.505C1.16834 117.464 1.1053 117.404 1.06219 117.33C1.01908 117.256 0.997615 117.172 1.00021 117.087C1.00281 117.003 1.02936 116.92 1.07688 116.85C12.2812 99.6759 27.6438 84.1662 49.1835 81.9467C63.7304 80.4426 75.8373 84.554 87.8639 92.6898C87.8982 92.7185 87.9215 92.7581 87.9299 92.802C87.9383 92.8459 87.9313 92.8913 87.9101 92.9306C87.8889 92.97 87.8547 93.0007 87.8134 93.0177C87.7721 93.0348 87.7262 93.037 87.6835 93.0241C85.9498 92.2976 84.1358 91.8787 82.2417 91.7673C75.5431 91.3729 69.5599 91.2525 63.3761 92.2419C55.8174 93.4453 48.6219 95.6937 41.7896 98.9873C41.7559 99.0033 41.7296 99.0316 41.7159 99.0664C41.7022 99.1011 41.7023 99.1398 41.7161 99.1745L41.7228 99.1812C41.7319 99.2058 41.7502 99.226 41.774 99.2372C41.7978 99.2485 41.825 99.2499 41.8498 99.2413C49.1099 96.8614 55.7817 95.5578 61.8653 95.3305C70.5471 95.0051 79.4317 95.8296 88.5191 97.804C89.8071 98.0803 91.1152 98.448 92.4433 98.9071Z" fill="#32AB27"/>
<path d="M109.437 95.128C110.649 97.0489 112.486 99.1792 114.946 101.519C121.159 107.424 127.911 112.035 135.202 115.351C143.197 118.992 151.119 120.848 158.968 120.919C160.973 120.937 164.309 120.697 168.975 120.197C169.475 120.144 170.419 120.271 171.81 120.579C162.549 124.777 154.415 130.573 147.409 137.967C147.372 138.005 147.346 138.052 147.333 138.103C147.32 138.154 147.32 138.207 147.333 138.258C147.347 138.309 147.373 138.356 147.41 138.394C147.446 138.432 147.492 138.46 147.543 138.475L171.121 145.742C171.204 145.768 171.278 145.815 171.337 145.878C171.396 145.941 171.438 146.019 171.458 146.103C171.478 146.187 171.476 146.275 171.452 146.358C171.429 146.441 171.384 146.517 171.322 146.577C140.423 176.46 126.117 190.659 107.191 208.469C107.031 208.616 106.901 208.687 106.803 208.683C106.531 208.674 106.396 208.529 106.396 208.248C106.342 169.429 106.266 136.509 106.168 109.488C106.155 105.178 106.754 100.561 107.967 95.6361C108.018 95.4219 108.15 95.237 108.334 95.1213C108.758 94.8584 109.125 94.8606 109.437 95.128Z" fill="#93CC4F"/>
<path d="M30.069 121.974C29.6991 121.573 30.0935 121.448 31.2523 121.599C37.1441 122.366 43.0561 122.573 48.9881 122.221C52.7228 122.003 56.3707 121.325 59.9317 120.189C72.8074 116.093 83.644 109 92.4417 98.9097C92.8027 98.678 93.1704 98.6156 93.5448 98.7225C93.6451 98.7531 93.7362 98.8082 93.8098 98.8829C93.8833 98.9576 93.937 99.0496 93.966 99.1504C95.1738 103.407 95.7776 107.465 95.7776 111.324C95.7554 162.475 95.7175 191.89 95.664 199.569C95.6373 203.896 95.5905 206.862 95.5236 208.467C95.5196 208.539 95.4951 208.61 95.453 208.669C95.4109 208.728 95.3529 208.775 95.2861 208.802C95.2192 208.83 95.1462 208.837 95.0757 208.824C95.0053 208.811 94.9403 208.777 94.8885 208.727L29.835 146.488C29.7988 146.454 29.7722 146.411 29.758 146.364C29.7437 146.316 29.7423 146.266 29.7538 146.218C29.7654 146.17 29.7895 146.125 29.8237 146.089C29.8579 146.054 29.901 146.027 29.9486 146.014L54.0153 138.767C54.0675 138.751 54.1139 138.72 54.1489 138.679C54.184 138.637 54.2063 138.586 54.2133 138.531C54.2203 138.476 54.2117 138.421 54.1885 138.37C54.1653 138.319 54.1284 138.276 54.0822 138.245C53.1017 137.617 52.0744 136.83 51.0003 135.886C44.6627 130.288 37.6856 125.65 30.069 121.974Z" fill="#1D673C"/>
</svg>
