<svg width="402" height="418" viewBox="0 0 402 418" fill="none" xmlns="http://www.w3.org/2000/svg">
<path d="M172.857 87.3677C191.322 109.843 205.976 136.076 213.543 164.929C213.572 165.035 213.633 165.13 213.719 165.199C213.804 165.268 213.909 165.308 214.019 165.314C214.128 165.32 214.237 165.291 214.329 165.232C214.422 165.172 214.493 165.085 214.533 164.983C218.321 155.312 221.169 146.496 223.076 138.536C225.822 127.1 226.798 114.563 226.004 100.925C224.56 76.2034 211.578 51.7223 193.782 34.6349C182.453 23.7693 171.431 14.0713 160.717 5.54097C159.95 4.92594 158.64 3.49979 156.786 1.26248C156.705 1.16784 156.602 1.09485 156.486 1.0501C156.37 1.00535 156.244 0.990224 156.121 1.00615C155.997 1.02208 155.88 1.06853 155.779 1.14129C155.678 1.21405 155.597 1.31086 155.543 1.42292C148.982 15.0785 143.621 28.8857 139.458 42.8443C132.011 67.8336 130.968 91.9537 140.782 116.462C152.16 144.874 178.098 164.836 204.197 178.58C204.273 178.621 204.358 178.641 204.444 178.638C204.53 178.634 204.613 178.608 204.686 178.562C204.758 178.515 204.816 178.451 204.855 178.374C204.894 178.297 204.911 178.212 204.906 178.126C204.478 169.56 203.007 160.954 200.494 152.308C195.547 135.234 188.42 116.93 180.465 100.471C179.253 97.9749 178.018 95.8312 176.761 94.0395C174.23 90.4384 172.83 88.2725 172.563 87.5415C172.549 87.5034 172.549 87.4617 172.563 87.4235C172.577 87.3854 172.603 87.3532 172.638 87.3326C172.673 87.312 172.714 87.3042 172.754 87.3106C172.794 87.317 172.831 87.3372 172.857 87.3677Z" stroke="#A0D7A0" stroke-width="2"/>
<path d="M290.997 96.4563C282.618 99.2017 276 102.495 271.142 106.337C270.42 106.899 267.937 109.172 263.694 113.156C256.448 119.948 251.34 128.639 248.546 138.012C248.52 138.101 248.514 138.194 248.527 138.286C248.541 138.377 248.575 138.465 248.625 138.542C248.676 138.62 248.743 138.685 248.822 138.735C248.9 138.784 248.989 138.815 249.081 138.827C254.963 139.54 260.753 140.048 266.449 140.351C287.182 141.43 304.385 134.032 318.058 118.156C319.128 116.909 323.812 111.578 332.111 102.166C337.628 95.8993 343.988 91.282 351.19 88.3138C351.247 88.2877 351.296 88.246 351.33 88.1936C351.365 88.1411 351.384 88.08 351.385 88.0171C351.387 87.9543 351.37 87.8924 351.338 87.8385C351.306 87.7845 351.259 87.7407 351.203 87.7121C332.124 78.3395 308.485 73.9272 288.028 79.5294C276.922 82.569 268.129 87.0926 261.649 93.1004C252.352 101.711 247.035 112.626 245.698 125.844C245.693 125.93 245.719 126.015 245.769 126.085C245.82 126.154 245.893 126.204 245.976 126.226C246.059 126.248 246.147 126.241 246.226 126.205C246.304 126.17 246.368 126.109 246.406 126.032C247.743 122.974 249.446 120.345 251.514 118.143C261.742 107.273 275.835 98.863 290.876 96.0151C290.935 95.9992 290.997 96.0071 291.05 96.0372C291.103 96.0673 291.141 96.1171 291.157 96.1756C291.173 96.2341 291.165 96.2965 291.135 96.3492C291.105 96.4018 291.055 96.4404 290.997 96.4563Z" stroke="#C3E39E" stroke-width="2"/>
<path d="M217.875 189.264C217.251 188.729 216.515 188.725 215.668 189.25C215.299 189.482 215.035 189.852 214.933 190.28C212.509 200.13 211.31 209.364 211.336 217.983C211.532 272.027 211.684 337.867 211.791 415.504C211.791 416.066 212.063 416.355 212.607 416.373C212.803 416.382 213.061 416.239 213.382 415.945C251.234 380.327 279.846 351.928 341.644 292.162C341.767 292.041 341.857 291.89 341.905 291.724C341.953 291.557 341.957 291.381 341.916 291.213C341.876 291.045 341.793 290.89 341.675 290.764C341.557 290.637 341.408 290.543 341.243 290.491L294.086 275.957C293.984 275.927 293.893 275.872 293.819 275.796C293.746 275.72 293.693 275.627 293.666 275.524C293.64 275.422 293.639 275.315 293.666 275.213C293.693 275.111 293.745 275.017 293.818 274.941C307.83 260.154 324.098 248.562 342.62 240.165" stroke="#C3E39E" stroke-width="2"/>
<path d="M342.621 240.164C346.213 238.694 352.078 237.169 360.216 235.592C373.435 233.025 386.796 232.205 400.3 233.132C400.418 233.14 400.536 233.116 400.642 233.062C400.747 233.009 400.836 232.927 400.899 232.827C400.962 232.727 400.997 232.612 401 232.494C401.003 232.375 400.974 232.259 400.915 232.156C393.018 218.75 383.516 206.208 372.41 194.531C352.715 173.821 327.485 159.902 298.846 157.188C272.542 154.701 248.449 161.203 226.566 176.695C226.534 176.72 226.51 176.755 226.5 176.794C226.489 176.833 226.491 176.875 226.506 176.913C226.522 176.951 226.549 176.982 226.583 177.003C226.618 177.025 226.659 177.034 226.699 177.03C227.769 176.869 228.487 176.771 228.852 176.735C260.085 173.651 288.921 178.999 315.358 192.78C315.385 192.794 315.406 192.815 315.418 192.837C315.431 192.859 315.433 192.882 315.425 192.9C315.416 192.927 315.407 192.949 315.399 192.967C315.393 192.984 315.38 192.999 315.36 193.009C315.341 193.02 315.315 193.027 315.285 193.029C315.255 193.032 315.221 193.03 315.186 193.024C315.15 193.018 315.113 193.008 315.078 192.994C298.739 186.719 280.849 183.924 261.409 184.61C246.104 185.145 231.593 186.696 217.875 189.263" stroke="#A0D7A0" stroke-width="2"/>
<path d="M342.621 240.163C339.84 239.548 337.95 239.294 336.952 239.401C327.619 240.399 320.947 240.88 316.936 240.845C301.239 240.702 285.395 236.99 269.404 229.707C254.822 223.075 241.318 213.854 228.892 202.044C223.972 197.364 220.299 193.103 217.875 189.262" stroke="#68BC44" stroke-width="2"/>
<path d="M59.1399 242.947C74.3732 250.301 88.3274 259.576 101.003 270.771C103.151 272.661 105.205 274.234 107.166 275.491C107.259 275.552 107.333 275.639 107.379 275.74C107.425 275.841 107.443 275.953 107.429 276.062C107.415 276.171 107.37 276.274 107.3 276.357C107.23 276.441 107.137 276.502 107.033 276.534L58.8992 291.027C58.804 291.055 58.7178 291.107 58.6493 291.179C58.5809 291.251 58.5327 291.339 58.5096 291.436C58.4865 291.532 58.4893 291.633 58.5179 291.728C58.5464 291.823 58.5995 291.909 58.6719 291.976L188.779 416.455C188.883 416.554 189.013 416.621 189.153 416.648C189.294 416.674 189.44 416.659 189.574 416.604C189.708 416.549 189.824 416.457 189.908 416.338C189.992 416.219 190.041 416.079 190.049 415.933C190.183 412.724 190.277 406.792 190.33 398.137C190.437 382.779 190.513 323.95 190.557 221.648C190.557 213.929 189.35 205.813 186.934 197.301C186.876 197.099 186.769 196.915 186.622 196.766C186.474 196.616 186.292 196.506 186.092 196.445C185.343 196.231 184.608 196.356 183.886 196.819" stroke="#8CB29B" stroke-width="2"/>
<path d="M183.887 196.818C181.23 195.9 178.614 195.165 176.038 194.612C157.864 190.663 140.094 189.014 122.731 189.665C110.564 190.119 97.2199 192.727 82.6997 197.487C82.65 197.504 82.5956 197.501 82.548 197.478C82.5005 197.456 82.4638 197.416 82.4457 197.366L82.4323 197.353C82.4047 197.283 82.4045 197.206 82.4318 197.137C82.4591 197.067 82.5119 197.011 82.5793 196.978C96.2439 190.391 110.635 185.894 125.752 183.488C138.12 181.509 150.086 181.75 163.483 182.538C167.272 182.761 170.9 183.599 174.367 185.052C174.453 185.078 174.544 185.073 174.627 185.039C174.71 185.005 174.778 184.944 174.82 184.865C174.863 184.787 174.877 184.696 174.86 184.608C174.843 184.52 174.797 184.441 174.728 184.384C150.675 168.112 126.461 159.889 97.367 162.897C54.2876 167.336 23.5625 198.356 1.15376 232.704C1.05872 232.845 1.00561 233.009 1.00042 233.179C0.99523 233.348 1.03816 233.516 1.12438 233.664C1.2106 233.811 1.33667 233.932 1.48834 234.013C1.64002 234.094 1.81124 234.131 1.98272 234.121C21.6461 232.98 40.6989 235.922 59.1411 242.946" stroke="#A0D7A0" stroke-width="2"/>
<path d="M183.885 196.816C166.29 216.997 144.616 231.183 118.865 239.374C111.743 241.647 104.447 243.002 96.9778 243.439C85.1138 244.143 73.29 243.729 61.5062 242.195C59.1887 241.892 58.3998 242.142 59.1396 242.944" stroke="#318C41" stroke-width="2"/>
<path d="M172.563 87.5415C172.83 88.2725 174.23 90.4384 176.761 94.0395C178.018 95.8312 179.253 97.9749 180.465 100.471C188.42 116.93 195.547 135.234 200.494 152.308C203.007 160.954 204.478 169.56 204.906 178.126C204.911 178.212 204.894 178.297 204.855 178.374C204.816 178.451 204.758 178.515 204.686 178.562C204.613 178.608 204.53 178.634 204.444 178.638C204.358 178.641 204.273 178.621 204.197 178.58C178.098 164.836 152.16 144.874 140.782 116.462C130.968 91.9537 132.011 67.8336 139.458 42.8443C143.621 28.8857 148.982 15.0785 155.543 1.42292C155.597 1.31086 155.678 1.21405 155.779 1.14129C155.88 1.06853 155.997 1.02208 156.121 1.00615C156.244 0.990224 156.37 1.00535 156.486 1.0501C156.602 1.09485 156.705 1.16784 156.786 1.26248C158.64 3.49979 159.95 4.92594 160.717 5.54097C171.431 14.0713 182.453 23.7693 193.782 34.6349C211.578 51.7223 224.56 76.2034 226.004 100.925C226.798 114.563 225.822 127.1 223.076 138.536C221.169 146.496 218.321 155.312 214.533 164.983C214.493 165.085 214.422 165.172 214.329 165.232C214.237 165.291 214.128 165.32 214.019 165.314C213.909 165.308 213.804 165.268 213.719 165.199C213.633 165.13 213.572 165.035 213.543 164.929C205.976 136.076 191.322 109.843 172.857 87.3677C172.831 87.3372 172.794 87.317 172.754 87.3106C172.714 87.3042 172.673 87.312 172.638 87.3326C172.603 87.3532 172.577 87.3854 172.563 87.4235C172.549 87.4617 172.549 87.5034 172.563 87.5415Z" fill="#DFDFDF"/>
<path d="M290.878 96.0151C275.837 98.863 261.744 107.273 251.516 118.143C249.448 120.345 247.745 122.974 246.408 126.032C246.37 126.109 246.306 126.17 246.228 126.205C246.149 126.241 246.061 126.248 245.978 126.226C245.895 126.204 245.822 126.154 245.771 126.085C245.72 126.015 245.695 125.93 245.7 125.844C247.037 112.626 252.354 101.711 261.651 93.1004C268.131 87.0926 276.924 82.569 288.03 79.5294C308.487 73.9272 332.126 78.3395 351.205 87.7121C351.261 87.7407 351.308 87.7845 351.34 87.8385C351.372 87.8924 351.389 87.9543 351.387 88.0171C351.386 88.08 351.367 88.1411 351.332 88.1936C351.298 88.246 351.249 88.2877 351.192 88.3138C343.99 91.282 337.63 95.8993 332.112 102.166C323.814 111.578 319.13 116.909 318.06 118.156C304.387 134.032 287.184 141.43 266.451 140.351C260.755 140.048 254.965 139.54 249.082 138.827C248.991 138.815 248.902 138.784 248.824 138.735C248.745 138.685 248.678 138.62 248.627 138.542C248.576 138.465 248.543 138.377 248.529 138.286C248.516 138.194 248.522 138.101 248.548 138.012C251.342 128.639 256.45 119.948 263.696 113.156C267.939 109.172 270.422 106.899 271.144 106.337C276.001 102.495 282.62 99.2017 290.999 96.4563C291.057 96.4404 291.107 96.4018 291.137 96.3492C291.167 96.2965 291.175 96.2341 291.159 96.1756C291.143 96.1171 291.105 96.0673 291.052 96.0372C290.999 96.0071 290.937 95.9992 290.878 96.0151Z" fill="#C4C4C4"/>
<path d="M342.621 240.164C339.84 239.549 337.95 239.295 336.952 239.402C327.619 240.401 320.947 240.882 316.936 240.846C301.239 240.704 285.395 236.991 269.404 229.709C254.822 223.077 241.318 213.856 228.892 202.045C223.972 197.366 220.299 193.105 217.875 189.263C231.593 186.696 246.104 185.145 261.409 184.61C280.849 183.924 298.739 186.719 315.078 192.994C315.113 193.008 315.15 193.018 315.186 193.024C315.221 193.03 315.255 193.032 315.285 193.029C315.315 193.027 315.341 193.02 315.36 193.009C315.38 192.999 315.393 192.984 315.399 192.967C315.407 192.949 315.416 192.927 315.425 192.9C315.433 192.882 315.431 192.859 315.418 192.837C315.406 192.815 315.385 192.794 315.358 192.78C288.921 178.999 260.085 173.651 228.852 176.735C228.487 176.771 227.769 176.869 226.699 177.03C226.659 177.034 226.618 177.025 226.583 177.003C226.549 176.982 226.522 176.951 226.506 176.913C226.491 176.875 226.489 176.833 226.5 176.794C226.51 176.755 226.534 176.72 226.566 176.695C248.449 161.203 272.542 154.701 298.846 157.188C327.485 159.902 352.715 173.821 372.41 194.531C383.516 206.208 393.018 218.75 400.915 232.156C400.974 232.259 401.003 232.375 401 232.494C400.997 232.612 400.962 232.727 400.899 232.827C400.836 232.927 400.747 233.009 400.642 233.062C400.536 233.116 400.418 233.14 400.3 233.132C386.796 232.205 373.435 233.025 360.216 235.592C352.078 237.169 346.213 238.694 342.621 240.164Z" fill="#DFDFDF"/>
<path d="M183.887 196.814C166.291 216.994 144.618 231.18 118.867 239.372C111.745 241.645 104.449 243 96.9793 243.437C85.1153 244.141 73.2914 243.726 61.5077 242.193C59.1901 241.89 58.4012 242.14 59.1411 242.942C40.6989 235.918 21.6461 232.977 1.98272 234.117C1.81124 234.127 1.64002 234.09 1.48834 234.009C1.33667 233.928 1.2106 233.807 1.12438 233.66C1.03816 233.512 0.99523 233.344 1.00042 233.175C1.00561 233.005 1.05872 232.841 1.15376 232.7C23.5625 198.352 54.2876 167.332 97.367 162.893C126.461 159.885 150.675 168.108 174.728 184.38C174.797 184.437 174.843 184.516 174.86 184.604C174.877 184.692 174.863 184.783 174.82 184.861C174.778 184.94 174.71 185.001 174.627 185.035C174.544 185.07 174.453 185.074 174.367 185.048C170.9 183.595 167.272 182.757 163.483 182.535C150.086 181.746 138.12 181.505 125.752 183.484C110.635 185.891 96.2439 190.387 82.5793 196.975C82.5119 197.007 82.4591 197.063 82.4318 197.133C82.4045 197.202 82.4047 197.28 82.4323 197.349L82.4457 197.362C82.4638 197.412 82.5005 197.452 82.548 197.474C82.5956 197.497 82.65 197.5 82.6997 197.483C97.2199 192.723 110.564 190.116 122.731 189.661C140.094 189.01 157.864 190.659 176.038 194.608C178.614 195.161 181.23 195.896 183.887 196.814Z" fill="#DFDFDF"/>
<path d="M217.875 189.26C220.299 193.102 223.971 197.362 228.892 202.042C241.317 213.853 254.821 223.074 269.404 229.705C285.395 236.988 301.239 240.7 316.936 240.843C320.947 240.879 327.619 240.397 336.951 239.399C337.949 239.292 339.839 239.546 342.62 240.161C324.098 248.558 307.83 260.15 293.818 274.937C293.745 275.013 293.693 275.107 293.666 275.209C293.639 275.311 293.64 275.419 293.666 275.521C293.693 275.623 293.746 275.716 293.819 275.792C293.893 275.868 293.984 275.923 294.086 275.954L341.243 290.487C341.408 290.539 341.557 290.633 341.675 290.76C341.793 290.886 341.876 291.041 341.916 291.209C341.957 291.378 341.953 291.553 341.905 291.72C341.857 291.886 341.767 292.037 341.644 292.158C279.846 351.924 251.234 380.323 213.382 415.941C213.061 416.236 212.803 416.378 212.607 416.369C212.063 416.351 211.791 416.062 211.791 415.5C211.684 337.863 211.532 272.023 211.336 217.98C211.31 209.36 212.509 200.126 214.933 190.276C215.035 189.848 215.299 189.478 215.668 189.247C216.515 188.721 217.251 188.725 217.875 189.26Z" fill="#C4C4C4"/>
<path d="M59.1399 242.947C58.4001 242.145 59.189 241.895 61.5065 242.199C73.2902 243.732 85.1141 244.146 96.9781 243.442C104.448 243.005 111.743 241.65 118.865 239.377C144.617 231.186 166.29 217 183.886 196.819C184.608 196.356 185.343 196.231 186.092 196.445C186.292 196.506 186.474 196.616 186.622 196.766C186.769 196.915 186.876 197.099 186.934 197.301C189.35 205.813 190.557 213.929 190.557 221.648C190.513 323.95 190.437 382.779 190.33 398.137C190.277 406.792 190.183 412.724 190.049 415.933C190.041 416.079 189.992 416.219 189.908 416.338C189.824 416.457 189.708 416.549 189.574 416.604C189.44 416.659 189.294 416.674 189.153 416.648C189.013 416.621 188.883 416.554 188.779 416.455L58.6719 291.976C58.5995 291.909 58.5464 291.823 58.5179 291.728C58.4893 291.633 58.4865 291.532 58.5096 291.436C58.5327 291.339 58.5809 291.251 58.6493 291.179C58.7178 291.107 58.804 291.055 58.8992 291.027L107.033 276.534C107.137 276.502 107.23 276.441 107.3 276.357C107.37 276.274 107.415 276.171 107.429 276.062C107.443 275.953 107.425 275.841 107.379 275.74C107.333 275.639 107.259 275.552 107.166 275.491C105.205 274.234 103.151 272.661 101.003 270.771C88.3274 259.576 74.3732 250.301 59.1399 242.947Z" fill="white"/>
</svg>
